<?xml version="1.0" encoding="UTF-8"?>
<svg width="2925px" height="1760px" viewBox="0 0 2925 1760" version="1.1" xmlns="http://www.w3.org/2000/svg" xmlns:xlink="http://www.w3.org/1999/xlink">
    <!-- Generator: Sketch 61.2 (89653) - https://sketch.com -->
    <title>Group</title>
    <desc>Created with Sketch.</desc>
    <g id="Page-1" stroke="none" stroke-width="1" fill="none" fill-rule="evenodd">
        <g id="6270" transform="translate(-43.000000, -99.000000)">
            <g id="Group" transform="translate(43.000000, 99.000000)">
                <path d="M933.116,259.226 C968.37,298.621 965.01,359.132 925.614,394.382 C886.219,429.633 825.708,426.273 790.457,386.879 C755.207,347.485 758.566,286.974 797.96,251.724 C837.354,216.474 897.866,219.832 933.116,259.226" id="Fill-2" fill="#D4DEFF"></path>
                <path d="M2898.75,1089.02 L2835.28,999.53 C2835.28,999.53 2773.22,1012.77 2753.54,1089.08 C2741.35,1136.39 2683.69,1167.37 2683.69,1167.37 L2747.5,1257.33 C2747.5,1257.33 2823.93,1226.24 2836.96,1171.93 C2850.74,1114.49 2898.75,1089.02 2898.75,1089.02" id="Fill-4" fill="#D4DEFF"></path>
                <path d="M2765.14,1165.21 C2783.98,1177.4 2810.8,1169.46 2825.02,1147.47 C2839.24,1125.48 2835.5,1097.77 2816.65,1085.58 C2797.8,1073.38 2770.99,1081.33 2756.76,1103.32 C2742.54,1125.31 2746.29,1153.02 2765.14,1165.21" id="Fill-5" fill="#E3EAFF"></path>
                <path d="M300.84,971.89 L265.566,868.011 C265.566,868.011 202.304,862.976 161.657,930.49 C136.462,972.35 72.361,985.58 72.361,985.58 L107.821,1090.01 C107.821,1090.01 189.952,1082.04 217.946,1033.71 C247.553,982.6 300.84,971.89 300.84,971.89" id="Fill-6" fill="#D4DEFF"></path>
                <g id="Group-10" fill="#E3EAFF">
                    <path d="M151.031,1006.76 C165.614,1023.83 193.576,1023.87 213.487,1006.86 C233.399,989.85 237.719,962.22 223.137,945.15 C208.555,928.09 180.592,928.04 160.681,945.06 C140.77,962.07 136.449,989.7 151.031,1006.76" id="Fill-7"></path>
                    <path d="M127.913,1719.4 C127.913,1719.4 -124.702,1472.33 82.239,1226.1 C134.717,1163.66 243.764,1136.33 248.742,1054.91 C259.108,885.354 150.64,759.064 266.329,585.572 C421.659,352.632 575.131,412.604 796.949,386.78 C953.451,368.56 986.09,256.25 1109.61,158.44 C1557.44,-196.156 1928.18,123.913 2158.56,353.634 C2230.36,425.232 2299.76,420.321 2374.71,415.41 C2479.98,408.513 2596.21,401.615 2745.43,606.721 C2902.45,822.561 2754.29,938.66 2742.66,1083.53 C2730.1,1239.84 2893.66,1315.27 2914.26,1416.53 C2950.92,1596.83 2878.28,1716.13 2878.28,1716.13 L127.913,1719.4" id="Fill-9"></path>
                </g>
                <path d="M2055.38,1333.15 C2040.72,1372.51 1996.93,1392.53 1957.57,1377.87 C1918.21,1363.2 1898.19,1319.41 1912.85,1280.05 C1927.51,1240.69 1971.3,1220.67 2010.66,1235.33 C2050.02,1249.99 2070.05,1293.79 2055.38,1333.15" id="Fill-11" fill="#FFFFFF"></path>
                <path d="M2864.52,1759.64 L71.827,1759.64 C55.06,1759.64 41.467,1746.04 41.467,1729.28 C41.467,1712.51 55.06,1698.92 71.827,1698.92 L2864.52,1698.92 C2881.29,1698.92 2894.88,1712.51 2894.88,1729.28 C2894.88,1746.04 2881.29,1759.64 2864.52,1759.64" id="Fill-13" fill="#95A6DB"></path>
                <path d="M263.352,699.535 C313.176,685.476 419.587,730.511 390.627,911.73 C361.667,1092.95 224.472,1063.06 224.472,1063.06 C224.472,1063.06 164.675,1044.26 159.308,929.13 C153.94,814.002 179.563,723.178 263.352,699.535" id="Fill-14" fill="#000000"></path>
                <path d="M288.388,941.79 C288.388,941.79 354.003,992.65 451.855,989.5 C471.587,951.67 431.369,932.84 431.369,932.84 L353.092,897.373 C353.092,897.373 324.926,888.119 301.686,906.41 C281.443,922.35 288.388,941.79 288.388,941.79" id="Fill-15" fill="#4364CC"></path>
                <path d="M357.459,841.414 C357.459,841.414 382.557,900.625 397.049,935.88 C402.8,949.88 424.59,990.32 451.855,989.5 C476.061,963.42 443.384,890.168 369.865,829.65 C361.175,838.848 357.459,841.414 357.459,841.414" id="Fill-16" fill="#F37A50"></path>
                <path d="M360.993,866.947 L385.193,855.062 C388.477,853.449 389.83,849.48 388.218,846.197 L362.789,794.423 C361.177,791.141 354.904,789 351.621,790.612 L329.726,803.284 C326.442,804.896 325.088,808.865 326.7,812.148 L348.388,864.772 C349.405,867.26 355.047,869.966 360.993,866.947" id="Fill-17" fill="#8A284C"></path>
                <path d="M356.052,866.613 L380.252,854.727 C383.534,853.115 384.889,849.146 383.276,845.863 L357.847,794.088 C356.234,790.806 352.267,789.452 348.983,791.064 L324.783,802.949 C321.501,804.563 320.146,808.531 321.759,811.813 L347.188,863.588 C348.801,866.871 352.769,868.226 356.052,866.613" id="Fill-18" fill="#E62552"></path>
                <path d="M353.056,856.164 L373.58,846.082 C376.281,844.755 377.396,841.49 376.069,838.788 L355.673,797.261 C354.346,794.559 351.08,793.445 348.378,794.771 L327.854,804.852 C325.152,806.18 324.037,809.445 325.364,812.146 L345.761,853.673 C347.088,856.375 350.354,857.49 353.056,856.164" id="Fill-19" fill="#3B1120"></path>
                <path d="M362.519,856.475 C362.905,858.257 364.664,859.39 366.447,859.003 C368.23,858.617 369.362,856.857 368.976,855.074 C368.59,853.291 366.83,852.159 365.047,852.545 C363.264,852.932 362.132,854.691 362.519,856.475" id="Fill-20" fill="#8A284C"></path>
                <path d="M383.379,831.229 C382.904,830.947 382.396,830.781 381.875,830.662 L382.026,830.428 C384.85,825.664 384.367,820.162 380.95,818.139 C380.389,817.807 379.781,817.6 379.148,817.488 C379.837,814.032 378.901,810.813 376.461,809.367 C375.492,808.794 374.39,808.572 373.245,808.642 C374.156,805.234 373.121,801.755 370.389,800.139 C366.971,798.114 362.246,799.771 359.837,803.837 C357.426,807.902 358.243,812.839 361.661,814.863 C362.526,815.376 363.476,815.65 364.45,815.711 C362.466,820.113 363.146,824.787 366.236,826.617 C366.797,826.949 367.405,827.156 368.037,827.268 C367.35,830.725 368.284,833.943 370.726,835.389 C371.625,835.922 372.64,836.153 373.696,836.129 C372.751,839.116 373.604,842.243 376.007,843.664 C378.895,845.373 382.885,843.977 384.919,840.541 C386.955,837.107 386.266,832.938 383.379,831.229" id="Fill-21" fill="#F37A50"></path>
                <path d="M306.625,864.129 L269.487,858.566 L272.445,893.038 C272.445,893.038 291.254,926.93 309.099,921.09 C326.943,915.25 318.24,900.283 318.24,900.283 L306.625,864.129" id="Fill-22" fill="#F37A50"></path>
                <path d="M239.777,808.201 C245.813,848.928 276.637,878.102 308.624,873.362 C340.611,868.622 361.649,831.764 355.614,791.035 C349.579,750.309 318.756,721.134 286.769,725.875 C254.78,730.615 233.742,767.474 239.777,808.201" id="Fill-23" fill="#F37A50"></path>
                <path d="M274.543,797.213 C274.987,797.082 275.393,796.805 275.678,796.395 C279.824,790.441 288.165,790.61 288.249,790.611 C289.415,790.645 290.392,789.728 290.429,788.562 C290.465,787.396 289.554,786.419 288.388,786.38 C287.953,786.365 277.684,786.107 272.204,793.975 C271.536,794.934 271.771,796.254 272.731,796.922 C273.28,797.304 273.947,797.391 274.543,797.213" id="Fill-24" fill="#000000"></path>
                <path d="M345.884,796.031 C346.096,795.949 346.297,795.83 346.479,795.675 C347.371,794.919 347.48,793.583 346.725,792.691 C340.852,785.769 332.691,787.706 332.347,787.792 C331.215,788.074 330.521,789.223 330.805,790.357 C331.086,791.488 332.229,792.178 333.36,791.902 C333.629,791.838 339.365,790.562 343.496,795.43 C344.097,796.139 345.064,796.354 345.884,796.031" id="Fill-25" fill="#000000"></path>
                <path d="M316.35,813.271 C319.012,816.543 321.307,819.873 323.946,821.88 C324.837,822.559 325.028,823.838 324.396,824.76 C321.784,828.565 314.899,831.281 310.706,832.643 C310.094,832.841 309.677,832.026 310.196,831.646 C314.593,828.428 316.578,825.947 317.441,824.564 C317.871,823.877 317.936,823.03 317.635,822.279 C316.944,820.552 315.575,817.033 314.694,814.144 C314.39,813.146 315.69,812.463 316.35,813.271" id="Fill-26" fill="#DE623C"></path>
                <path d="M289.544,844.033 C288.731,842.787 289.787,841.178 291.251,841.442 C294.974,842.114 301.136,843.096 307.052,843.451 C312.968,843.805 319.203,843.566 322.979,843.344 C324.464,843.255 325.319,844.98 324.363,846.12 C321.424,849.627 315.469,854.857 306.4,854.314 C297.332,853.771 292.044,847.865 289.544,844.033" id="Fill-27" fill="#FFFFFF"></path>
                <path d="M226.759,804.472 C264.591,802.76 314.348,767.841 320.362,748.67 C315.199,724.547 296.18,710.917 273.462,719.878 C250.745,728.84 213.524,773.523 226.759,804.472" id="Fill-28" fill="#000000"></path>
                <path d="M311.721,758.363 C311.721,758.363 334.234,781.247 357.034,786.475 C349.055,759.785 343.354,739.55 329.675,732.995 C315.995,726.441 300.891,725.3 300.891,725.3 L311.721,758.363" id="Fill-29" fill="#000000"></path>
                <path d="M248.621,801.877 C255.711,808.47 257.085,818.518 251.689,824.32 C246.294,830.122 236.173,829.48 229.082,822.887 C221.992,816.295 220.619,806.246 226.015,800.444 C231.41,794.643 241.531,795.283 248.621,801.877" id="Fill-30" fill="#F37A50"></path>
                <path d="M242.508,821.688 C242.805,821.571 243.079,821.387 243.307,821.133 C246.572,817.502 247.231,813.158 245.071,809.51 C242.859,805.775 238.319,803.756 234.275,804.709 C233.138,804.978 232.433,806.116 232.7,807.254 C232.969,808.393 234.108,809.098 235.246,808.83 C237.461,808.309 240.177,809.555 241.429,811.668 C242.632,813.698 242.181,816.055 240.158,818.303 C239.377,819.172 239.447,820.51 240.317,821.291 C240.934,821.846 241.786,821.972 242.508,821.688" id="Fill-31" fill="#DE623C"></path>
                <path d="M278.609,803.442 C278.609,807.033 281.52,809.943 285.11,809.943 C288.7,809.943 291.611,807.033 291.611,803.442 C291.611,799.852 288.7,796.941 285.11,796.941 C281.52,796.941 278.609,799.852 278.609,803.442" id="Fill-32" fill="#000000"></path>
                <path d="M325.982,803.442 C325.982,807.033 328.893,809.943 332.483,809.943 C336.073,809.943 338.984,807.033 338.984,803.442 C338.984,799.852 336.073,796.941 332.483,796.941 C328.893,796.941 325.982,799.852 325.982,803.442" id="Fill-33" fill="#000000"></path>
                <path d="M341.394,1644.68 C338.907,1619.88 351.704,1431.12 351.704,1431.12 C387.895,1265.17 373.679,1146.38 373.679,1146.38 L311.476,1150.75 L286.96,1244.53 L298.588,1401.13 C298.588,1401.13 294.224,1413.19 291.92,1422.83 C279.431,1475.1 291.87,1537.58 299.562,1579.22 C303.125,1598.51 308.669,1639.07 308.813,1648.29 L293.187,1668.49 C293.187,1668.49 349.743,1731.08 358.443,1731.47 C375.354,1732.24 370.372,1715.49 370.372,1715.49 C347.127,1691.62 342.106,1651.78 341.394,1644.68" id="Fill-34" fill="#F37A50"></path>
                <path d="M292.219,1690.67 L295.331,1730.88 L302.559,1731.21 L306.215,1693.86 C325.454,1698.77 339.238,1733.69 339.238,1733.69 C352.49,1738.44 386.177,1741.7 398.165,1735.52 C401.061,1723.77 370.32,1715.54 370.32,1715.54 C367.544,1718.82 351.135,1721.34 345.308,1717.82 C323.851,1699.55 313.388,1672.99 308.814,1648.29 C308.814,1648.29 274.909,1650.65 292.219,1690.67" id="Fill-35" fill="#E62552"></path>
                <path d="M320.359,1158.46 L232.73,1146.38 C199.21,1222.23 188.282,1354.27 179.183,1401.31 C142.655,1462.56 131.057,1648.29 131.057,1648.29 L115.43,1668.49 C115.43,1668.49 171.986,1731.08 180.687,1731.47 C197.598,1732.24 192.614,1715.49 192.614,1715.49 C169.369,1691.62 164.838,1659.9 163.332,1652.92 C161.07,1642.44 234.26,1436.4 234.26,1436.4 L242.073,1416.85 C331.468,1269.2 346.136,1157.58 346.136,1157.58 L320.359,1158.46" id="Fill-36" fill="#F37A50"></path>
                <path d="M114.462,1690.67 L117.573,1730.88 L124.802,1731.21 L128.458,1693.86 C147.697,1698.77 161.481,1733.69 161.481,1733.69 C174.733,1738.44 208.42,1741.7 220.408,1735.52 C223.303,1723.77 192.563,1715.54 192.563,1715.54 C189.786,1718.82 173.377,1721.34 167.55,1717.82 C146.094,1699.55 135.63,1672.99 131.057,1648.29 C131.057,1648.29 97.151,1650.65 114.462,1690.67" id="Fill-37" fill="#E62552"></path>
                <path d="M157.443,1392.7 C166.194,1363.42 162.386,1153.84 239.643,1096.85 L372.587,1110.86 C403.309,1160.59 392.038,1289.98 381.693,1396.47 C319.187,1418.79 269.487,1427.74 157.443,1392.7" id="Fill-38" fill="#070635"></path>
                <path d="M374.208,1078.06 C374.208,1048.94 399.44,1005.33 387.346,975.93 C378.536,952.29 361.229,898.955 342.368,895.354 C334.715,893.893 326.315,895.364 315.719,892.434 C315.719,892.434 321.252,917.13 308.797,918.12 C284.821,920.05 272.221,889.309 272.221,889.309 C259.293,888.073 214.21,901.53 214.237987,906.4 C214.379,944.53 231.151,1006.2 241.283,1047.44 C243.163,1068.43 241.676,1084.72 239.573,1096.6 C235.734,1108.98 231.047,1116.07 231.017,1118.75 C231.017,1118.75 319.887,1148.94 376.431,1117.81 C376.431,1117.81 374.208,1097.72 374.208,1078.06" id="Fill-39" fill="#768FDB"></path>
                <path d="M216.098,1105.73 L223.672,1108.75 C223.672,1108.75 231.566,1096.2 239.573,1096.6 L235.583,1108.59 C235.583,1108.59 240.111,1122.61 264.365,1121 C285.083,1125.71 270.59,1135.55 276.325,1139.49 C284.789,1145.29 261.053,1159.55 241.056,1153.4 C215.18,1145.44 198.368,1121 198.368,1121 L216.098,1105.73" id="Fill-40" fill="#F37A50"></path>
                <path d="M216.098,904.11 C216.098,904.11 152.776,941.21 122.118,1030.11 C149.655,1060.64 172.856,1037.86 172.856,1037.86 L234.201,977.24 C234.201,977.24 252.235,955.09 243.611,928.03 C236.1,904.46 216.098,904.11 216.098,904.11" id="Fill-41" fill="#F37A50"></path>
                <path d="M216.098,1105.73 L171.83,1040.89 C171.83,1040.89 161.373,1016.03 122.118,1030.11 C120.218,1051.22 135.501,1081.27 205.517,1127.59 C210.039,1115.77 216.098,1105.73 216.098,1105.73" id="Fill-42" fill="#F37A50"></path>
                <path d="M308.797,918.12 C310.934,928.1 305.139,940.06 288.429,934.45 C268.416,927.73 259.066,890.168 259.066,890.168 L271.616,883.369 C271.616,883.369 281.144,909.32 308.797,918.12" id="Fill-43" fill="#FFFFFF"></path>
                <path d="M308.797,918.12 C311.267,923.26 325.343,936.44 332.014,928.59 C338.685,920.74 330.897,900.145 330.897,900.145 L315.719,892.434 C315.719,892.434 321.67,910.98 308.797,918.12" id="Fill-44" fill="#FFFFFF"></path>
                <path d="M216.098,904.11 C216.098,904.11 152.776,941.21 122.118,1030.11 C149.655,1060.64 175.246,1035.5 175.246,1035.5 L234.201,977.24 C234.201,977.24 252.235,955.09 243.611,928.03 C236.1,904.46 216.098,904.11 216.098,904.11" id="Fill-45" fill="#4364CC"></path>
                <path d="M1371.31,318.393 C1346.02,376.138 1278.71,402.452 1220.97,377.167 C1163.22,351.882 1136.91,284.574 1162.19,226.829 C1187.48,169.083 1254.79,142.769 1312.53,168.054 C1370.28,193.338 1396.59,260.647 1371.31,318.393" id="Fill-46" fill="#FABA23"></path>
                <path d="M1352.63,310.219 C1331.87,357.651 1276.58,379.261 1229.14,358.492 C1224.19,356.324 1219.52,353.782 1215.15,350.904 C1207.75,346.047 1201.22,340.25 1195.64,333.746 C1193.52,331.276 1191.54,328.708 1189.7,326.054 C1176.21,306.574 1170.35,282.328 1174.06,258.331 C1175.27,250.472 1177.52,242.638 1180.86,235.006 C1196.35,199.634 1231.04,178.615 1267.35,178.829351 C1279.72,178.906 1292.3,181.446 1304.36,186.727 C1314.79,191.298 1323.99,197.539 1331.74,205.007 C1334.09,207.258 1336.3,209.621 1338.38,212.089 C1344.03,218.775 1348.67,226.194 1352.22,234.09 C1362.73,257.421 1363.7,284.937 1352.63,310.219" id="Fill-47" fill="#FAD332"></path>
                <path d="M1159.64,778.197 C1129.52,846.994 1049.33,878.344 980.53,848.22 C911.735,818.096 880.383,737.906 910.508,669.107 C940.632,600.312 1020.82,568.961 1089.62,599.085 C1158.42,629.209 1189.77,709.399 1159.64,778.197" id="Fill-48" fill="#FABA23"></path>
                <path d="M1137.4,768.458 C1112.66,824.969 1046.79,850.716 990.28,825.971 C984.38,823.388 978.81,820.359 973.61,816.93 C964.79,811.144 957.01,804.238 950.354,796.488 C947.835,793.547 945.474,790.488 943.279,787.324 C927.215,764.116 920.232,735.231 924.651,706.64 C926.093,697.277 928.772,687.945 932.753,678.851 C951.206,636.708 992.53,611.667 1035.79,611.92401 C1050.54,612.015 1065.51,615.042 1079.88,621.332 C1092.32,626.778 1103.27,634.214 1112.51,643.11 C1115.3,645.793 1117.94,648.608 1120.42,651.548 C1127.14,659.515 1132.68,668.352 1136.91,677.761 C1149.43,705.557 1150.59,738.339 1137.4,768.458" id="Fill-49" fill="#FAD332"></path>
                <path d="M2107.8,867.149 C2077.67,935.95 1997.48,967.3 1928.68,937.17 C1859.89,907.05 1828.54,826.857 1858.66,758.061 C1888.79,689.264 1968.98,657.914 2037.77,688.038 C2106.57,718.162 2137.92,798.353 2107.8,867.149" id="Fill-50" fill="#FABA23"></path>
                <path d="M2085.55,857.411 C2060.81,913.92 1994.94,939.67 1938.43,914.92 C1932.53,912.34 1926.96,909.31 1921.76,905.88 C1912.94,900.097 1905.16,893.191 1898.51,885.44 C1895.99,882.499 1893.63,879.44 1891.43,876.277 C1875.37,853.069 1868.38,824.183 1872.8,795.592 C1874.25,786.229 1876.92,776.896 1880.91,767.804 C1899.36,725.661 1940.69,700.621 1983.95,700.875056 C1998.69,700.967 2013.67,703.994 2028.03,710.285 C2040.47,715.73 2051.42,723.166 2060.66,732.063 C2063.46,734.745 2066.09,737.561 2068.57,740.5 C2075.3,748.467 2080.83,757.304 2085.06,766.713 C2097.58,794.51 2098.74,827.291 2085.55,857.411" id="Fill-51" fill="#FAD332"></path>
                <path d="M1971.21,928.12 C1959.13,925.61 1956.78,926.59 1950.2,936.87 C1952.78,924.94 1951.8,922.59 1941.46,915.86 C1953.54,918.38 1955.89,917.4 1962.46,907.12 C1959.95,919.2 1960.93,921.55 1971.21,928.12" id="Fill-52" fill="#FFFFFF"></path>
                <polyline id="Fill-53" fill="#3F964F" points="1729.02 513.005 1384.16 1433.04 1311.68 1406.2 909.519 1257.33 1190.37 510.253 1191.47 507.29 1460 413.42 1729.02 513.005"></polyline>
                <path d="M1371.08,471.363 L1553.16,538.767 C1536.83,582.889 1559.36,631.903 1603.48,648.244 L1376.96,1248.65 C1332.83,1232.31 1283.8,1254.84 1267.47,1298.97 L1085.39,1231.56 C1101.72,1187.44 1079.2,1138.43 1035.08,1122.08 L1261.6,521.684 C1305.73,538.02 1354.75,515.495 1371.08,471.363" id="Fill-54" fill="#4EAD60"></path>
                <path d="M1372.91,727.001 C1446.17,754.12 1483.57,835.489 1456.45,908.74 C1429.33,982 1347.96,1019.4 1274.71,992.28 C1201.45,965.16 1164.05,883.795 1191.17,810.541 C1218.29,737.286 1299.66,699.884 1372.91,727.001" id="Fill-55" fill="#3F964F"></path>
                <polyline id="Fill-56" fill="#3F964F" points="1460 413.419 1353.14 606.721 1190.37 510.251 1187.62 508.631 1191.46 507.288 1460 413.419"></polyline>
                <polyline id="Fill-57" fill="#B6DDFF" points="1190.23 510.611 1190.37 510.251 1190.37 510.253 1190.23 510.611"></polyline>
                <polyline id="Fill-58" fill="#32783F" points="1237.01 586.864 1166.47 574.804 1190.23 510.611 1190.37 510.253 1190.37 510.252 1252.11 546.842 1237.01 586.864"></polyline>
                <polyline id="Fill-59" fill="#3E8A4D" points="1353.14 606.721 1237.01 586.864 1252.11 546.842 1353.14 606.721"></polyline>
                <polyline id="Fill-60" fill="#B6DDFF" points="1477.84 420.025 1460 413.42 1460 413.419 1477.84 420.024"></polyline>
                <polyline id="Fill-61" fill="#32783F" points="1429.18 492.871 1418.3 488.843 1460 413.419 1460 413.42 1477.84 420.025 1429.18 492.871"></polyline>
                <polyline id="Fill-62" fill="#3E8A4D" points="1353.14 606.721 1418.3 488.843 1429.18 492.871 1353.14 606.721"></polyline>
                <polyline id="Fill-63" fill="#32783F" points="1156.43 800.433 1081.28 800.433 1095.62 762.284 1170.82 762.284 1156.43 800.433"></polyline>
                <path d="M1189.91,814.087 C1181.11,805.287 1171.47,800.433 1161.36,800.433 L1156.43,800.433 L1170.82,762.284 L1181.9,762.284 C1191.86,762.284 1201.36,766.992 1210.05,775.539 C1202.32,786.005 1195.91,797.726 1191.17,810.541 C1190.73,811.721 1190.31,812.902 1189.91,814.087" id="Fill-64" fill="#3E8A4D"></path>
                <polyline id="Fill-65" fill="#32783F" points="1549.8 790.531 1563.06 755.38 1651.87 718.814 1638.71 753.924 1549.8 790.531"></polyline>
                <path d="M1461.42,826.914 C1459.29,817.964 1456.28,809.248 1452.48,800.908 L1563.06,755.38 L1549.8,790.531 L1461.42,826.914" id="Fill-66" fill="#3E8A4D"></path>
                <path d="M1232.02,921.36 C1224.89,872.751 1209.48,833.658 1189.91,814.087 C1190.31,812.902 1190.73,811.721 1191.17,810.541 C1195.91,797.726 1202.32,786.005 1210.05,775.539 C1229.81,794.976 1245.38,834.271 1252.56,883.215 L1452.48,800.908 C1456.28,809.248 1459.29,817.964 1461.42,826.914 L1232.02,921.36" id="Fill-67" fill="#32783F"></path>
                <polyline id="Fill-68" fill="#3F964F" points="2058.25 1128.53 965.41 1578.46 772.729 1110.45 1865.57 660.525 2058.25 1128.53"></polyline>
                <path d="M1846.16,837.2 L1920.07,1016.74 C1876.57,1034.65 1855.82,1084.44 1873.72,1127.95 L1096.05,1448.14 C1078.13,1404.62 1028.33,1383.87 984.82,1401.78 L910.909,1222.25 C954.412,1204.33 975.17,1154.54 957.26,1111.03 L1734.93,790.844 C1752.85,834.359 1802.64,855.116 1846.16,837.2" id="Fill-69" fill="#4EAD60"></path>
                <path d="M1539.01,1058.03 C1568.75,1130.27 1534.3,1212.93 1462.07,1242.67 C1389.84,1272.4 1307.17,1237.96 1277.44,1165.72 C1247.7,1093.49 1282.15,1010.83 1354.38,981.09 C1426.61,951.36 1509.27,985.8 1539.01,1058.03" id="Fill-70" fill="#3F964F"></path>
                <path d="M1236.34,980.68 L1236.34,1479.22 L730.223,1479.22 L730.223,980.68 L1086.4,980.68 C1086.76,880.983 1120.18,800.433 1161.36,800.433 C1202.54,800.433 1235.97,880.983 1236.33,980.68 L1236.34,980.68" id="Fill-71" fill="#3F964F"></path>
                <polygon id="Fill-72" fill="#4EAD60" points="805.23 1361.54 1161.33 1361.54 1161.33 801.148 805.23 801.148"></polygon>
                <path d="M1109.61,1113.61 C1109.61,1183.38 1053.05,1239.95 983.28,1239.95 C913.508,1239.95 856.946,1183.38 856.946,1113.61 C856.946,1043.84 913.508,987.28 983.28,987.28 C1053.05,987.28 1109.61,1043.84 1109.61,1113.61" id="Fill-73" fill="#3F964F"></path>
                <path d="M805.23,980.68 L730.223,980.68 L730.223,800.433 L922.818,800.433 C922.982,800.672 923.144,800.909 923.309,801.148 L805.23,801.148 L805.23,980.68" id="Fill-74" fill="#B6DDFF"></path>
                <path d="M954.591,801.148 L923.309,801.148 C923.144,800.909 922.982,800.672 922.818,800.433 L953.909,800.433 C954.136,800.672 954.363,800.91 954.591,801.148" id="Fill-75" fill="#F1951C"></path>
                <path d="M1081.01,801.148 L954.591,801.148 C954.363,800.91 954.136,800.672 953.909,800.433 L1081.28,800.433 L1081.01,801.148" id="Fill-76" fill="#F1B828"></path>
                <path d="M1154.66,801.148 L1081.01,801.148 L1081.28,800.433 L1156.43,800.433 L1156.27,800.844 C1155.74,800.931 1155.2,801.033 1154.66,801.148" id="Fill-77" fill="#286032"></path>
                <path d="M1156.27,800.844 L1156.43,800.433 L1161.36,800.433 C1159.65,800.433 1157.96,800.571 1156.27,800.844" id="Fill-78" fill="#326E3E"></path>
                <path d="M1236.34,1031.74 L1161.33,1031.74 L1161.33,801.148 L1154.66,801.148 C1155.2,801.033 1155.74,800.931 1156.27,800.844 C1157.96,800.571 1159.65,800.433 1161.36,800.433 C1202.54,800.433 1235.97,880.983 1236.33,980.68 L1236.34,980.68 L1236.34,1031.74 L1236.34,1031.74 Z M730.223,1031.74 L805.23,1031.74 L805.23,980.68 L730.223,980.68 L730.223,1031.74 Z" id="Fill-79" fill="#32783F"></path>
                <path d="M1161.33,1031.74 L1079.5,1031.74 C1056.33,1004.53 1021.82,987.28 983.28,987.28 C944.74,987.28 910.235,1004.53 887.062,1031.74 L805.23,1031.74 L805.23,801.148 L1161.33,801.148 L1161.33,1031.74" id="Fill-80" fill="#3E8A4D"></path>
                <path d="M1079.5,1031.74 L887.062,1031.74 C910.235,1004.53 944.74,987.28 983.28,987.28 C1021.82,987.28 1056.33,1004.53 1079.5,1031.74" id="Fill-81" fill="#32783F"></path>
                <path d="M1161.36,800.433 C1120.18,800.433 1086.75,880.983 1086.4,980.68 L580.265,980.68 L580.273,980.66 C580.637,880.974 614.062,800.433 655.244,800.433 L1161.36,800.433" id="Fill-82" fill="#3F964F"></path>
                <path d="M1070.03,800.433 C1051.82,800.433 1035.8,816.943 1026.56,841.91 C998.64,842.602 976.23,864.059 976.23,890.428 L976.23,890.554 L720.343,890.554 L720.343,890.428 C720.343,866.211 701.447,846.139 676.743,842.484 C685.943,817.196 702.068,800.433 720.424,800.433 L1070.03,800.433" id="Fill-83" fill="#4EAD60"></path>
                <polyline id="Fill-84" fill="#B6DDFF" points="1921.49 1184.83 1957.49 1170.01 1958.57 1170.01 1921.49 1184.83"></polyline>
                <polyline id="Fill-85" fill="#32783F" points="1895.72 1195.13 1711.08 1194.91 1771.55 1170.01 1957.49 1170.01 1921.49 1184.83 1895.72 1195.13"></polyline>
                <path d="M1711.08,1194.91 L1522.91,1194.69 C1528.49,1186.95 1533.26,1178.67 1537.16,1170.01 L1771.55,1170.01 L1711.08,1194.91 M1293.32,1194.41 L1236.34,1194.35 L1236.34,1170.01 L1279.28,1170.01 C1283.22,1178.75 1287.93,1186.9 1293.32,1194.41" id="Fill-86" fill="#3E8A4D"></path>
                <path d="M1522.91,1194.69 L1293.32,1194.41 C1287.93,1186.9 1283.22,1178.75 1279.28,1170.01 L1537.16,1170.01 C1533.26,1178.67 1528.49,1186.95 1522.91,1194.69" id="Fill-87" fill="#32783F"></path>
                <path d="M1236.34,1194.35 L1161.33,1194.26 L1161.33,1170.01 L1236.34,1170.01 L1236.34,1194.35 M805.23,1193.83 L730.223,1193.74 L730.223,1170.01 L805.23,1170.01 L805.23,1193.83" id="Fill-88" fill="#32783F"></path>
                <path d="M1161.33,1194.26 L1080.61,1194.16 C1086.73,1186.77 1092.03,1178.67 1096.36,1170.01 L1161.33,1170.01 L1161.33,1194.26 M885.757,1193.93 L805.23,1193.83 L805.23,1170.01 L870.204,1170.01 C874.488,1178.58 879.718,1186.6 885.757,1193.93" id="Fill-89" fill="#3E8A4D"></path>
                <path d="M1080.61,1194.16 L885.757,1193.93 C879.718,1186.6 874.488,1178.58 870.204,1170.01 L1096.36,1170.01 C1092.03,1178.67 1086.73,1186.77 1080.61,1194.16" id="Fill-90" fill="#32783F"></path>
                <path d="M467.247,1627.35 C397.087,1730.23 256.806,1756.76 153.92,1686.6 C51.035,1616.44 24.506,1476.16 94.666,1373.28 C164.827,1270.39 305.108,1243.86 407.994,1314.02 C510.879,1384.18 537.408,1524.46 467.247,1627.35" id="Fill-91" fill="#FABA23"></path>
                <path d="M433.979,1604.67 C376.35,1689.18 261.122,1710.96 176.612,1653.33 C167.79,1647.31 159.646,1640.67 152.215,1633.49 C139.626,1621.36 129.062,1607.73 120.586,1593.06 C117.383,1587.49 114.471,1581.78 111.864,1575.96 C92.794,1533.22 90.26,1484 106.219,1438.77 C111.438,1423.95 118.659,1409.56 127.933,1395.96 C170.91,1332.94 245.928,1304.79 316.344,1318.46 C340.34,1323.12 363.821,1332.64 385.308,1347.29 C403.906,1359.97 419.474,1375.45 431.808,1392.78 C435.54,1398 438.978,1403.4 442.116,1408.95 C450.636,1423.99 456.946,1440.08 460.959,1456.71 C472.853,1505.85 464.696,1559.62 433.979,1604.67" id="Fill-92" fill="#FAD332"></path>
                <path d="M431.808,1392.78 L111.864,1575.96 C92.794,1533.22 90.26,1484 106.219,1438.77 L316.344,1318.46 C340.34,1323.12 363.821,1332.64 385.308,1347.29 C403.906,1359.97 419.474,1375.45 431.808,1392.78" id="Fill-93" fill="#FAEE6C"></path>
                <path d="M460.959,1456.71 L152.215,1633.49 C139.626,1621.36 129.062,1607.73 120.586,1593.06 L442.116,1408.95 C450.636,1423.99 456.946,1440.08 460.959,1456.71" id="Fill-94" fill="#FAEE6C"></path>
                <path d="M230.336,1298.31 C210.007,1315.22 208.512,1320.47 216.979,1345.2 C200.418,1324.97 195.169,1323.48 170.085,1331.85 C190.414,1314.94 191.909,1309.69 183.442,1284.95 C200.353,1305.28 205.602,1306.78 230.336,1298.31" id="Fill-95" fill="#FFFFFF"></path>
                <path d="M1910.05,1195.77 C1875.78,1274.04 1784.54,1309.71 1706.27,1275.44 C1628,1241.17 1592.34,1149.93 1626.61,1071.66 C1660.88,993.39 1752.11,957.72 1830.38,992 C1908.65,1026.27 1944.32,1117.5 1910.05,1195.77" id="Fill-96" fill="#FABA23"></path>
                <path d="M1884.74,1184.69 C1856.59,1248.99 1781.65,1278.28 1717.36,1250.13 C1710.65,1247.19 1704.31,1243.74 1698.39,1239.84 C1688.37,1233.26 1679.51,1225.4 1671.94,1216.58 C1669.07,1213.24 1666.39,1209.76 1663.89,1206.16 C1645.62,1179.75 1637.67,1146.89 1642.7,1114.36 C1644.34,1103.71 1647.38,1093.09 1651.92,1082.75 C1672.91,1034.8 1719.93,1006.31 1769.14,1006.60765 C1785.92,1006.71 1802.96,1010.15 1819.3,1017.31 C1833.45,1023.5 1845.91,1031.96 1856.42,1042.08 C1859.6,1045.14 1862.6,1048.34 1865.42,1051.68 C1873.07,1060.75 1879.37,1070.8 1884.18,1081.51 C1898.43,1113.13 1899.75,1150.43 1884.74,1184.69" id="Fill-97" fill="#FAD332"></path>
                <path d="M1856.42,1042.08 L1663.89,1206.16 C1645.62,1179.75 1637.67,1146.89 1642.7,1114.36 L1769.14,1006.61 C1785.92,1006.71 1802.96,1010.15 1819.3,1017.31 C1833.45,1023.5 1845.91,1031.96 1856.42,1042.08" id="Fill-98" fill="#FAEE6C"></path>
                <path d="M1884.18,1081.51 L1698.39,1239.84 C1688.37,1233.26 1679.51,1225.4 1671.94,1216.58 L1865.42,1051.68 C1873.07,1060.75 1879.37,1070.8 1884.18,1081.51" id="Fill-99" fill="#FAEE6C"></path>
                <path d="M1708.59,1003.92 C1697.03,1017.9 1696.68,1021.63 1705.53,1037.23 C1691.8,1025.69 1688.07,1025.35 1672.21,1034.17 C1683.78,1020.19 1684.12,1016.46 1675.28,1000.85 C1689.26,1012.42 1692.99,1012.76 1708.59,1003.92" id="Fill-100" fill="#FFFFFF"></path>
                <path d="M1912.14,1721.99 L654.618,1721.99 C628.731,1721.99 607.745,1701 607.745,1675.12 L607.745,1240.61 C607.745,1214.73 628.731,1193.74 654.618,1193.74 L1912.14,1193.74 C1938.03,1193.74 1959.02,1214.73 1959.02,1240.61 L1959.02,1675.12 C1959.02,1701 1938.03,1721.99 1912.14,1721.99" id="Fill-101" fill="#4E73E6"></path>
                <polygon id="Fill-102" fill="#2E5BE6" points="1252.03 1722.32 1314.73 1722.32 1314.73 1193.74 1252.03 1193.74"></polygon>
                <path d="M720.43,1232.59 L686.456,1232.59 C683.635,1232.59 681.303,1230.31 681.303,1227.49 C681.303,1224.67 683.544,1222.38 686.365,1222.38 L720.43,1222.38 C723.251,1222.38 725.538,1224.67 725.538,1227.49 C725.538,1230.31 723.251,1232.59 720.43,1232.59 Z M788.558,1232.59 L754.493,1232.59 C751.672,1232.59 749.385,1230.31 749.385,1227.49 C749.385,1224.67 751.672,1222.38 754.493,1222.38 L788.558,1222.38 C791.379,1222.38 793.666,1224.67 793.666,1227.49 C793.666,1230.31 791.379,1232.59 788.558,1232.59 Z M856.686,1232.59 L822.621,1232.59 C819.8,1232.59 817.513,1230.31 817.513,1227.49 C817.513,1224.67 819.8,1222.38 822.621,1222.38 L856.686,1222.38 C859.507,1222.38 861.794,1224.67 861.794,1227.49 C861.794,1230.31 859.507,1232.59 856.686,1232.59 Z M924.813,1232.59 L890.749,1232.59 C887.928,1232.59 885.641,1230.31 885.641,1227.49 C885.641,1224.67 887.928,1222.38 890.749,1222.38 L924.813,1222.38 C927.634,1222.38 929.922,1224.67 929.922,1227.49 C929.922,1230.31 927.634,1232.59 924.813,1232.59 Z M992.94,1232.59 L958.88,1232.59 C956.056,1232.59 953.769,1230.31 953.769,1227.49 C953.769,1224.67 956.056,1222.38 958.88,1222.38 L992.94,1222.38 C995.76,1222.38 998.05,1224.67 998.05,1227.49 C998.05,1230.31 995.76,1232.59 992.94,1232.59 Z M1061.07,1232.59 L1027,1232.59 C1024.18,1232.59 1021.9,1230.31 1021.9,1227.49 C1021.9,1224.67 1024.18,1222.38 1027,1222.38 L1061.07,1222.38 C1063.89,1222.38 1066.18,1224.67 1066.18,1227.49 C1066.18,1230.31 1063.89,1232.59 1061.07,1232.59 Z M1129.2,1232.59 L1095.13,1232.59 C1092.31,1232.59 1090.02,1230.31 1090.02,1227.49 C1090.02,1224.67 1092.31,1222.38 1095.13,1222.38 L1129.2,1222.38 C1132.02,1222.38 1134.3,1224.67 1134.3,1227.49 C1134.3,1230.31 1132.02,1232.59 1129.2,1232.59 Z M1197.32,1232.59 L1163.26,1232.59 C1160.44,1232.59 1158.15,1230.31 1158.15,1227.49 C1158.15,1224.67 1160.44,1222.38 1163.26,1222.38 L1197.32,1222.38 C1200.15,1222.38 1202.43,1224.67 1202.43,1227.49 C1202.43,1230.31 1200.15,1232.59 1197.32,1232.59 Z M1265.45,1232.59 L1231.39,1232.59 C1228.57,1232.59 1226.28,1230.31 1226.28,1227.49 C1226.28,1224.67 1228.57,1222.38 1231.39,1222.38 L1265.45,1222.38 C1268.27,1222.38 1270.56,1224.67 1270.56,1227.49 C1270.56,1230.31 1268.27,1232.59 1265.45,1232.59 Z M1333.58,1232.59 L1299.52,1232.59 C1296.69,1232.59 1294.41,1230.31 1294.41,1227.49 C1294.41,1224.67 1296.69,1222.38 1299.52,1222.38 L1333.58,1222.38 C1336.4,1222.38 1338.69,1224.67 1338.69,1227.49 C1338.69,1230.31 1336.4,1232.59 1333.58,1232.59 Z M1401.71,1232.59 L1367.64,1232.59 C1364.82,1232.59 1362.54,1230.31 1362.54,1227.49 C1362.54,1224.67 1364.82,1222.38 1367.64,1222.38 L1401.71,1222.38 C1404.53,1222.38 1406.82,1224.67 1406.82,1227.49 C1406.82,1230.31 1404.53,1232.59 1401.71,1232.59 Z M1469.83,1232.59 L1435.77,1232.59 C1432.95,1232.59 1430.66,1230.31 1430.66,1227.49 C1430.66,1224.67 1432.95,1222.38 1435.77,1222.38 L1469.83,1222.38 C1472.66,1222.38 1474.94,1224.67 1474.94,1227.49 C1474.94,1230.31 1472.66,1232.59 1469.83,1232.59 Z M1537.96,1232.59 L1503.9,1232.59 C1501.08,1232.59 1498.79,1230.31 1498.79,1227.49 C1498.79,1224.67 1501.08,1222.38 1503.9,1222.38 L1537.96,1222.38 C1540.78,1222.38 1543.07,1224.67 1543.07,1227.49 C1543.07,1230.31 1540.78,1232.59 1537.96,1232.59 Z M1606.09,1232.59 L1572.03,1232.59 C1569.21,1232.59 1566.92,1230.31 1566.92,1227.49 C1566.92,1224.67 1569.21,1222.38 1572.03,1222.38 L1606.09,1222.38 C1608.91,1222.38 1611.2,1224.67 1611.2,1227.49 C1611.2,1230.31 1608.91,1232.59 1606.09,1232.59 Z M1674.22,1232.59 L1640.15,1232.59 C1637.33,1232.59 1635.05,1230.31 1635.05,1227.49 C1635.05,1224.67 1637.33,1222.38 1640.15,1222.38 L1674.22,1222.38 C1677.04,1222.38 1679.33,1224.67 1679.33,1227.49 C1679.33,1230.31 1677.04,1232.59 1674.22,1232.59 Z M1742.35,1232.59 L1708.28,1232.59 C1705.46,1232.59 1703.17,1230.31 1703.17,1227.49 C1703.17,1224.67 1705.46,1222.38 1708.28,1222.38 L1742.35,1222.38 C1745.17,1222.38 1747.45,1224.67 1747.45,1227.49 C1747.45,1230.31 1745.17,1232.59 1742.35,1232.59 Z M1810.47,1232.59 L1776.41,1232.59 C1773.59,1232.59 1771.3,1230.31 1771.3,1227.49 C1771.3,1224.67 1773.59,1222.38 1776.41,1222.38 L1810.47,1222.38 C1813.29,1222.38 1815.58,1224.67 1815.58,1227.49 C1815.58,1230.31 1813.29,1232.59 1810.47,1232.59 Z M1878.6,1232.59 L1844.54,1232.59 C1841.72,1232.59 1839.43,1230.31 1839.43,1227.49 C1839.43,1224.67 1841.72,1222.38 1844.54,1222.38 L1878.6,1222.38 C1881.42,1222.38 1883.71,1224.67 1883.71,1227.49 C1883.71,1230.31 1881.42,1232.59 1878.6,1232.59 Z M1922.9,1274.68 C1920.1,1274.68 1917.82,1272.43 1917.79,1269.63 C1917.67,1259.42 1913.52,1249.93 1906.12,1242.89 C1904.07,1240.95 1903.99,1237.72 1905.93,1235.67 C1907.87,1233.63 1911.1,1233.54 1913.15,1235.49 C1922.58,1244.44 1927.85,1256.52 1928,1269.51 C1928.04,1272.33 1925.78,1274.65 1922.96,1274.68 L1922.9,1274.68 Z M643.865,1276.48 C641.044,1276.48 638.757,1274.19 638.757,1271.37 L638.757,1270.08 C638.757,1257.62 643.526,1245.84 652.187,1236.9 C654.148,1234.87 657.383,1234.82 659.409,1236.78 C661.437,1238.75 661.488,1241.98 659.525,1244.01 C652.721,1251.03 648.974,1260.29 648.974,1270.08 L648.974,1271.37 C648.974,1274.19 646.687,1276.48 643.865,1276.48 Z M1922.9,1342.81 C1920.08,1342.81 1917.79,1340.52 1917.79,1337.7 L1917.79,1303.63 C1917.79,1300.81 1920.08,1298.53 1922.9,1298.53 C1925.72,1298.53 1928.01,1300.81 1928.01,1303.63 L1928.01,1337.7 C1928.01,1340.52 1925.72,1342.81 1922.9,1342.81 Z M643.865,1344.6 C641.044,1344.6 638.757,1342.32 638.757,1339.5 L638.757,1305.43 C638.757,1302.61 641.044,1300.32 643.865,1300.32 C646.687,1300.32 648.974,1302.61 648.974,1305.43 L648.974,1339.5 C648.974,1342.32 646.687,1344.6 643.865,1344.6 Z M1922.9,1410.93 C1920.08,1410.93 1917.79,1408.65 1917.79,1405.83 L1917.79,1371.76 C1917.79,1368.94 1920.08,1366.65 1922.9,1366.65 C1925.72,1366.65 1928.01,1368.94 1928.01,1371.76 L1928.01,1405.83 C1928.01,1408.65 1925.72,1410.93 1922.9,1410.93 Z M643.865,1412.73 C641.044,1412.73 638.757,1410.44 638.757,1407.62 L638.757,1373.56 C638.757,1370.74 641.044,1368.45 643.865,1368.45 C646.687,1368.45 648.974,1370.74 648.974,1373.56 L648.974,1407.62 C648.974,1410.44 646.687,1412.73 643.865,1412.73 Z M1922.9,1479.06 C1920.08,1479.06 1917.79,1476.78 1917.79,1473.95 L1917.79,1439.89 C1917.79,1437.07 1920.08,1434.78 1922.9,1434.78 C1925.72,1434.78 1928.01,1437.07 1928.01,1439.89 L1928.01,1473.95 C1928.01,1476.78 1925.72,1479.06 1922.9,1479.06 Z M643.865,1480.86 C641.044,1480.86 638.757,1478.57 638.757,1475.75 L638.757,1441.69 C638.757,1438.87 641.044,1436.58 643.865,1436.58 C646.687,1436.58 648.974,1438.87 648.974,1441.69 L648.974,1475.75 C648.974,1478.57 646.687,1480.86 643.865,1480.86 Z M1922.9,1547.19 C1920.08,1547.19 1917.79,1544.9 1917.79,1542.08 L1917.79,1508.02 C1917.79,1505.2 1920.08,1502.91 1922.9,1502.91 C1925.72,1502.91 1928.01,1505.2 1928.01,1508.02 L1928.01,1542.08 C1928.01,1544.9 1925.72,1547.19 1922.9,1547.19 Z M643.865,1548.99 C641.044,1548.99 638.757,1546.7 638.757,1543.88 L638.757,1509.81 C638.757,1506.99 641.044,1504.71 643.865,1504.71 C646.687,1504.71 648.974,1506.99 648.974,1509.81 L648.974,1543.88 C648.974,1546.7 646.687,1548.99 643.865,1548.99 Z M1922.9,1615.32 C1920.08,1615.32 1917.79,1613.03 1917.79,1610.21 L1917.79,1576.15 C1917.79,1573.32 1920.08,1571.04 1922.9,1571.04 C1925.72,1571.04 1928.01,1573.32 1928.01,1576.15 L1928.01,1610.21 C1928.01,1613.03 1925.72,1615.32 1922.9,1615.32 Z M643.865,1617.11 C641.044,1617.11 638.757,1614.83 638.757,1612.01 L638.757,1577.94 C638.757,1575.12 641.044,1572.83 643.865,1572.83 C646.687,1572.83 648.974,1575.12 648.974,1577.94 L648.974,1612.01 C648.974,1614.83 646.687,1617.11 643.865,1617.11 Z M1910.97,1680.32 C1909.69,1680.32 1908.42,1679.85 1907.42,1678.89 C1905.39,1676.93 1905.33,1673.7 1907.29,1671.67 C1914.06,1664.65 1917.79,1655.41 1917.79,1645.65 L1917.79,1644.27 C1917.79,1641.45 1920.08,1639.17 1922.9,1639.17 C1925.72,1639.17 1928.01,1641.45 1928.01,1644.27 L1928.01,1645.65 C1928.01,1658.07 1923.26,1669.83 1914.65,1678.76 C1913.65,1679.8 1912.31,1680.32 1910.97,1680.32 Z M657.065,1681.59 C655.799,1681.59 654.529,1681.12 653.541,1680.18 C644.133,1671.2 638.884,1659.11 638.759,1646.12 C638.731,1643.3 640.996,1640.99 643.817,1640.96 L643.867,1640.96 C646.666,1640.96 648.947,1643.22 648.975,1646.02 C649.073,1656.23 653.198,1665.73 660.592,1672.78 C662.634,1674.73 662.71,1677.96 660.763,1680 C659.759,1681.06 658.413,1681.59 657.065,1681.59 Z M722.135,1693.35 L688.071,1693.35 C685.25,1693.35 682.963,1691.07 682.963,1688.24 C682.963,1685.42 685.25,1683.14 688.071,1683.14 L722.135,1683.14 C724.957,1683.14 727.244,1685.42 727.244,1688.24 C727.244,1691.07 724.957,1693.35 722.135,1693.35 Z M790.264,1693.35 L756.199,1693.35 C753.378,1693.35 751.091,1691.07 751.091,1688.24 C751.091,1685.42 753.378,1683.14 756.199,1683.14 L790.264,1683.14 C793.085,1683.14 795.372,1685.42 795.372,1688.24 C795.372,1691.07 793.085,1693.35 790.264,1693.35 Z M858.391,1693.35 L824.327,1693.35 C821.506,1693.35 819.219,1691.07 819.219,1688.24 C819.219,1685.42 821.506,1683.14 824.327,1683.14 L858.391,1683.14 C861.212,1683.14 863.499,1685.42 863.499,1688.24 C863.499,1691.07 861.212,1693.35 858.391,1693.35 Z M926.519,1693.35 L892.455,1693.35 C889.634,1693.35 887.347,1691.07 887.347,1688.24 C887.347,1685.42 889.634,1683.14 892.455,1683.14 L926.519,1683.14 C929.34,1683.14 931.627,1685.42 931.627,1688.24 C931.627,1691.07 929.34,1693.35 926.519,1693.35 Z M994.65,1693.35 L960.58,1693.35 C957.76,1693.35 955.475,1691.07 955.475,1688.24 C955.475,1685.42 957.76,1683.14 960.58,1683.14 L994.65,1683.14 C997.47,1683.14 999.75,1685.42 999.75,1688.24 C999.75,1691.07 997.47,1693.35 994.65,1693.35 Z M1062.77,1693.35 L1028.71,1693.35 C1025.89,1693.35 1023.6,1691.07 1023.6,1688.24 C1023.6,1685.42 1025.89,1683.14 1028.71,1683.14 L1062.77,1683.14 C1065.6,1683.14 1067.88,1685.42 1067.88,1688.24 C1067.88,1691.07 1065.6,1693.35 1062.77,1693.35 Z M1130.9,1693.35 L1096.84,1693.35 C1094.02,1693.35 1091.73,1691.07 1091.73,1688.24 C1091.73,1685.42 1094.02,1683.14 1096.84,1683.14 L1130.9,1683.14 C1133.72,1683.14 1136.01,1685.42 1136.01,1688.24 C1136.01,1691.07 1133.72,1693.35 1130.9,1693.35 Z M1199.03,1693.35 L1164.97,1693.35 C1162.14,1693.35 1159.86,1691.07 1159.86,1688.24 C1159.86,1685.42 1162.14,1683.14 1164.97,1683.14 L1199.03,1683.14 C1201.85,1683.14 1204.14,1685.42 1204.14,1688.24 C1204.14,1691.07 1201.85,1693.35 1199.03,1693.35 Z M1267.16,1693.35 L1233.09,1693.35 C1230.27,1693.35 1227.99,1691.07 1227.99,1688.24 C1227.99,1685.42 1230.27,1683.14 1233.09,1683.14 L1267.16,1683.14 C1269.98,1683.14 1272.27,1685.42 1272.27,1688.24 C1272.27,1691.07 1269.98,1693.35 1267.16,1693.35 Z M1335.29,1693.35 L1301.22,1693.35 C1298.4,1693.35 1296.11,1691.07 1296.11,1688.24 C1296.11,1685.42 1298.4,1683.14 1301.22,1683.14 L1335.29,1683.14 C1338.11,1683.14 1340.39,1685.42 1340.39,1688.24 C1340.39,1691.07 1338.11,1693.35 1335.29,1693.35 Z M1403.41,1693.35 L1369.35,1693.35 C1366.53,1693.35 1364.24,1691.07 1364.24,1688.24 C1364.24,1685.42 1366.53,1683.14 1369.35,1683.14 L1403.41,1683.14 C1406.23,1683.14 1408.52,1685.42 1408.52,1688.24 C1408.52,1691.07 1406.23,1693.35 1403.41,1693.35 Z M1471.54,1693.35 L1437.48,1693.35 C1434.66,1693.35 1432.37,1691.07 1432.37,1688.24 C1432.37,1685.42 1434.66,1683.14 1437.48,1683.14 L1471.54,1683.14 C1474.36,1683.14 1476.65,1685.42 1476.65,1688.24 C1476.65,1691.07 1474.36,1693.35 1471.54,1693.35 Z M1539.67,1693.35 L1505.6,1693.35 C1502.78,1693.35 1500.5,1691.07 1500.5,1688.24 C1500.5,1685.42 1502.78,1683.14 1505.6,1683.14 L1539.67,1683.14 C1542.49,1683.14 1544.78,1685.42 1544.78,1688.24 C1544.78,1691.07 1542.49,1693.35 1539.67,1693.35 Z M1607.8,1693.35 L1573.73,1693.35 C1570.91,1693.35 1568.62,1691.07 1568.62,1688.24 C1568.62,1685.42 1570.91,1683.14 1573.73,1683.14 L1607.8,1683.14 C1610.62,1683.14 1612.91,1685.42 1612.91,1688.24 C1612.91,1691.07 1610.62,1693.35 1607.8,1693.35 Z M1675.92,1693.35 L1641.86,1693.35 C1639.04,1693.35 1636.75,1691.07 1636.75,1688.24 C1636.75,1685.42 1639.04,1683.14 1641.86,1683.14 L1675.92,1683.14 C1678.75,1683.14 1681.03,1685.42 1681.03,1688.24 C1681.03,1691.07 1678.75,1693.35 1675.92,1693.35 Z M1744.05,1693.35 L1709.99,1693.35 C1707.17,1693.35 1704.88,1691.07 1704.88,1688.24 C1704.88,1685.42 1707.17,1683.14 1709.99,1683.14 L1744.05,1683.14 C1746.87,1683.14 1749.16,1685.42 1749.16,1688.24 C1749.16,1691.07 1746.87,1693.35 1744.05,1693.35 Z M1812.18,1693.35 L1778.12,1693.35 C1775.29,1693.35 1773.01,1691.07 1773.01,1688.24 C1773.01,1685.42 1775.29,1683.14 1778.12,1683.14 L1812.18,1683.14 C1815,1683.14 1817.29,1685.42 1817.29,1688.24 C1817.29,1691.07 1815,1693.35 1812.18,1693.35 Z M1880.49,1693.35 L1846.24,1693.35 C1843.42,1693.35 1841.14,1691.07 1841.14,1688.24 C1841.14,1685.42 1843.42,1683.14 1846.24,1683.14 L1880.49,1683.14 C1883.31,1683.14 1885.6,1685.42 1885.6,1688.24 C1885.6,1691.07 1883.31,1693.35 1880.49,1693.35 L1880.49,1693.35 Z" id="Fill-103" fill="#7292F7"></path>
                <path d="M1838.12,1592.13 L1381.35,1592.13 C1371.52,1592.13 1363.54,1584.15 1363.54,1574.32 L1363.54,1334.32 C1363.54,1324.49 1371.52,1316.52 1381.35,1316.52 L1838.12,1316.52 C1847.95,1316.52 1855.92,1324.49 1855.92,1334.32 L1855.92,1574.32 C1855.92,1584.15 1847.95,1592.13 1838.12,1592.13" id="Fill-104" fill="#7292F7"></path>
                <path d="M1813.75,1383.81 L1596.68,1383.81 C1593.94,1383.81 1591.72,1381.59 1591.72,1378.85 L1591.72,1362.2 C1591.72,1359.46 1593.94,1357.24 1596.68,1357.24 L1813.75,1357.24 C1816.49,1357.24 1818.71,1359.46 1818.71,1362.2 L1818.71,1378.85 C1818.71,1381.59 1816.49,1383.81 1813.75,1383.81" id="Fill-105" fill="#4E73E6"></path>
                <path d="M1705.24,1492.29 L1596.68,1492.29 C1593.94,1492.29 1591.72,1490.07 1591.72,1487.33 L1591.72,1470.68 C1591.72,1467.94 1593.94,1465.72 1596.68,1465.72 L1705.24,1465.72 C1707.97,1465.72 1710.2,1467.94 1710.2,1470.68 L1710.2,1487.33 C1710.2,1490.07 1707.97,1492.29 1705.24,1492.29" id="Fill-106" fill="#4E73E6"></path>
                <path d="M1813.75,1546.53 L1596.68,1546.53 C1593.94,1546.53 1591.72,1544.31 1591.72,1541.57 L1591.72,1524.92 C1591.72,1522.18 1593.94,1519.96 1596.68,1519.96 L1813.75,1519.96 C1816.49,1519.96 1818.71,1522.18 1818.71,1524.92 L1818.71,1541.57 C1818.71,1544.31 1816.49,1546.53 1813.75,1546.53" id="Fill-107" fill="#4E73E6"></path>
                <path d="M1763.37,1438.05 L1596.68,1438.05 C1593.94,1438.05 1591.72,1435.83 1591.72,1433.09 L1591.72,1416.44 C1591.72,1413.7 1593.94,1411.48 1596.68,1411.48 L1763.37,1411.48 C1766.11,1411.48 1768.33,1413.7 1768.33,1416.44 L1768.33,1433.09 C1768.33,1435.83 1766.11,1438.05 1763.37,1438.05" id="Fill-108" fill="#4E73E6"></path>
                <polygon id="Fill-109" fill="#FFFFFF" points="1402.93 1546.54 1567.36 1546.54 1567.36 1357.24 1402.93 1357.24"></polygon>
                <path d="M1567.36,1517.32 L1567.36,1546.54 L1402.93,1546.54 L1402.93,1517.32 C1415.71,1500.89 1447.7,1489.24 1485.14,1489.24 C1522.59,1489.24 1554.58,1500.89 1567.36,1517.32" id="Fill-110" fill="#4E73E6"></path>
                <path d="M1527.74,1436.41 C1527.74,1459.93 1508.67,1479.01 1485.14,1479.01 C1461.62,1479.01 1442.54,1459.93 1442.54,1436.41 C1442.54,1412.88 1461.62,1393.81 1485.14,1393.81 C1508.67,1393.81 1527.74,1412.88 1527.74,1436.41" id="Fill-111" fill="#201D40"></path>
                <path d="M1523.1,1444.17 C1523.1,1444.87 1523.08,1445.55 1523.05,1446.24 C1522.01,1467.14 1505.44,1483.77 1485.14,1483.77 C1464.89,1483.77 1448.34,1467.21 1447.25,1446.38 C1447.2,1445.65 1447.19,1444.91 1447.19,1444.17 C1447.19,1429.99 1454.33,1417.55 1465.07,1410.56 C1470.9,1406.77 1477.77,1404.57 1485.14,1404.57 C1486.53,1404.57 1487.89,1404.65 1489.24,1404.8 C1508.27,1406.93 1523.1,1423.75 1523.1,1444.17" id="Fill-112" fill="#F37A50"></path>
                <path d="M1523.1,1442.53 C1523.1,1443.2 1523.08,1443.86 1523.05,1444.51 C1520.08,1445.05 1517.02,1445.33 1513.88,1445.33 C1499.1,1445.33 1485.78,1439.1 1476.39,1429.14 C1471.37,1423.81 1467.47,1417.4 1465.07,1410.31 C1470.9,1406.68 1477.77,1404.57 1485.14,1404.57 C1486.53,1404.57 1487.89,1404.65 1489.24,1404.79 C1508.27,1406.83 1523.1,1422.96 1523.1,1442.53" id="Fill-113" fill="#201D40"></path>
                <path d="M1489.24,1404.79 C1487.22,1414.09 1482.69,1422.46 1476.39,1429.14 C1468.8,1437.19 1458.66,1442.79 1447.25,1444.65 C1447.2,1443.95 1447.19,1443.24 1447.19,1442.53 C1447.19,1428.94 1454.33,1417.01 1465.07,1410.31 C1470.9,1406.68 1477.77,1404.57 1485.14,1404.57 C1486.53,1404.57 1487.89,1404.65 1489.24,1404.79" id="Fill-114" fill="#201D40"></path>
                <path d="M1175.68,1323.2 L1175.68,1349.29 L734.771,1349.29 L734.771,1323.2 C734.771,1307.41 747.567,1294.62 763.343,1294.62 L1147.11,1294.62 C1162.88,1294.62 1175.68,1307.41 1175.68,1323.2" id="Fill-115" fill="#FAD332"></path>
                <polygon id="Fill-116" fill="#2E5BE6" points="700.46 1349.29 1220.1 1349.29 1220.1 1338.32 700.46 1338.32"></polygon>
                <path d="M1175.68,1397.12 L1175.68,1413.92 L734.771,1413.92 L734.771,1397.12 C734.771,1381.33 747.567,1368.54 763.343,1368.54 L1147.11,1368.54 C1162.88,1368.54 1175.68,1381.33 1175.68,1397.12" id="Fill-117" fill="#E62552"></path>
                <polygon id="Fill-118" fill="#2E5BE6" points="700.46 1422.02 1220.1 1422.02 1220.1 1411.05 700.46 1411.05"></polygon>
                <path d="M1175.68,1474.45 L1175.68,1498.79 L734.771,1498.79 L734.771,1474.45 C734.771,1458.67 747.567,1445.87 763.343,1445.87 L1147.11,1445.87 C1162.88,1445.87 1175.68,1458.67 1175.68,1474.45" id="Fill-119" fill="#6EAB3F"></path>
                <polygon id="Fill-120" fill="#2E5BE6" points="700.46 1498.79 1220.1 1498.79 1220.1 1487.81 700.46 1487.81"></polygon>
                <path d="M750.452,1681.5 L750.452,1710.19 C750.452,1721.39 741.364,1730.48 730.156,1730.48 L380.024,1730.48 C368.817,1730.48 359.729,1721.39 359.729,1710.19 L359.729,1681.5 C359.729,1676.51 361.527,1671.94 364.521,1668.4 C368.249,1664 373.812,1661.2 380.024,1661.2 L730.156,1661.2 C736.369,1661.2 741.932,1664 745.659,1668.4 C748.654,1671.94 750.452,1676.51 750.452,1681.5" id="Fill-121" fill="#FAD332"></path>
                <polygon id="Fill-122" fill="#FABA23" points="379.134 1730.48 389.303 1730.48 389.303 1661.2 379.134 1661.2"></polygon>
                <polygon id="Fill-123" fill="#FABA23" points="421.781 1730.48 431.951 1730.48 431.951 1661.2 421.781 1661.2"></polygon>
                <polygon id="Fill-124" fill="#FABA23" points="464.43 1730.48 474.6 1730.48 474.6 1661.2 464.43 1661.2"></polygon>
                <polygon id="Fill-125" fill="#FABA23" points="507.078 1730.48 517.248 1730.48 517.248 1661.2 507.078 1661.2"></polygon>
                <polygon id="Fill-126" fill="#FABA23" points="549.727 1730.48 559.896 1730.48 559.896 1661.2 549.727 1661.2"></polygon>
                <polygon id="Fill-127" fill="#FABA23" points="592.375 1730.48 602.544 1730.48 602.544 1661.2 592.375 1661.2"></polygon>
                <polygon id="Fill-128" fill="#FABA23" points="635.023 1730.48 645.192 1730.48 645.192 1661.2 635.023 1661.2"></polygon>
                <polygon id="Fill-129" fill="#FABA23" points="677.671 1730.48 687.841 1730.48 687.841 1661.2 677.671 1661.2"></polygon>
                <polygon id="Fill-130" fill="#FABA23" points="720.32 1730.48 730.489 1730.48 730.489 1661.2 720.32 1661.2"></polygon>
                <path d="M745.659,1668.4 L364.521,1668.4 C368.249,1664 373.812,1661.2 380.024,1661.2 L730.156,1661.2 C736.369,1661.2 741.932,1664 745.659,1668.4" id="Fill-131" fill="#FABA23"></path>
                <path d="M745.659,1723.29 L364.521,1723.29 C368.249,1727.69 373.812,1730.48 380.024,1730.48 L730.156,1730.48 C736.369,1730.48 741.932,1727.69 745.659,1723.29" id="Fill-132" fill="#FABA23"></path>
                <path d="M724.447,1612.22 L724.447,1640.91 C724.447,1652.12 715.358,1661.2 704.15,1661.2 L354.02,1661.2 C342.813,1661.2 333.723,1652.12 333.723,1640.91 L333.723,1612.22 C333.723,1607.23 335.521,1602.66 338.516,1599.12 C342.244,1594.72 347.806,1591.92 354.02,1591.92 L704.15,1591.92 C710.364,1591.92 715.926,1594.72 719.654,1599.12 C722.648,1602.66 724.447,1607.23 724.447,1612.22" id="Fill-133" fill="#FAD332"></path>
                <polygon id="Fill-134" fill="#FABA23" points="353.128 1661.2 363.298 1661.2 363.298 1591.92 353.128 1591.92"></polygon>
                <polygon id="Fill-135" fill="#FABA23" points="395.776 1661.2 405.946 1661.2 405.946 1591.92 395.776 1591.92"></polygon>
                <polygon id="Fill-136" fill="#FABA23" points="438.425 1661.2 448.594 1661.2 448.594 1591.92 438.425 1591.92"></polygon>
                <polygon id="Fill-137" fill="#FABA23" points="481.073 1661.2 491.242 1661.2 491.242 1591.92 481.073 1591.92"></polygon>
                <polygon id="Fill-138" fill="#FABA23" points="523.722 1661.2 533.891 1661.2 533.891 1591.92 523.722 1591.92"></polygon>
                <polygon id="Fill-139" fill="#FABA23" points="566.37 1661.2 576.539 1661.2 576.539 1591.92 566.37 1591.92"></polygon>
                <polygon id="Fill-140" fill="#FABA23" points="609.018 1661.2 619.188 1661.2 619.188 1591.92 609.018 1591.92"></polygon>
                <polygon id="Fill-141" fill="#FABA23" points="651.666 1661.2 661.836 1661.2 661.836 1591.92 651.666 1591.92"></polygon>
                <polygon id="Fill-142" fill="#FABA23" points="694.314 1661.2 704.484 1661.2 704.484 1591.92 694.314 1591.92"></polygon>
                <path d="M719.654,1599.12 L338.516,1599.12 C342.244,1594.72 347.806,1591.92 354.02,1591.92 L704.15,1591.92 C710.364,1591.92 715.926,1594.72 719.654,1599.12" id="Fill-143" fill="#FABA23"></path>
                <path d="M719.654,1654.01 L338.516,1654.01 C342.244,1658.41 347.806,1661.2 354.02,1661.2 L704.15,1661.2 C710.364,1661.2 715.926,1658.41 719.654,1654.01" id="Fill-144" fill="#FABA23"></path>
                <path d="M2037.74,1682.2 L2037.74,1710.68 C2037.74,1721.81 2028.71,1730.83 2017.58,1730.83 L1669.94,1730.83 C1658.82,1730.83 1649.79,1721.81 1649.79,1710.68 L1649.79,1682.2 C1649.79,1677.24 1651.58,1672.7 1654.55,1669.19 C1658.25,1664.82 1663.78,1662.04 1669.94,1662.04 L2017.58,1662.04 C2023.75,1662.04 2029.28,1664.82 2032.98,1669.19 C2035.95,1672.7 2037.74,1677.24 2037.74,1682.2" id="Fill-145" fill="#FAD332"></path>
                <polygon id="Fill-146" fill="#FABA23" points="1669.06 1730.83 1679.16 1730.83 1679.16 1662.05 1669.06 1662.05"></polygon>
                <polygon id="Fill-147" fill="#FABA23" points="1711.4 1730.83 1721.5 1730.83 1721.5 1662.05 1711.4 1662.05"></polygon>
                <polygon id="Fill-148" fill="#FABA23" points="1753.75 1730.83 1763.85 1730.83 1763.85 1662.05 1753.75 1662.05"></polygon>
                <polygon id="Fill-149" fill="#FABA23" points="1796.09 1730.83 1806.19 1730.83 1806.19 1662.05 1796.09 1662.05"></polygon>
                <polygon id="Fill-150" fill="#FABA23" points="1838.44 1730.83 1848.54 1730.83 1848.54 1662.05 1838.44 1662.05"></polygon>
                <polygon id="Fill-151" fill="#FABA23" points="1880.78 1730.83 1890.88 1730.83 1890.88 1662.05 1880.78 1662.05"></polygon>
                <polygon id="Fill-152" fill="#FABA23" points="1923.13 1730.83 1933.23 1730.83 1933.23 1662.05 1923.13 1662.05"></polygon>
                <polygon id="Fill-153" fill="#FABA23" points="1965.47 1730.83 1975.57 1730.83 1975.57 1662.05 1965.47 1662.05"></polygon>
                <polygon id="Fill-154" fill="#FABA23" points="2007.82 1730.83 2017.92 1730.83 2017.92 1662.05 2007.82 1662.05"></polygon>
                <path d="M2032.98,1669.19 L1654.55,1669.19 C1658.25,1664.82 1663.78,1662.04 1669.94,1662.04 L2017.58,1662.04 C2023.75,1662.04 2029.28,1664.82 2032.98,1669.19" id="Fill-155" fill="#FABA23"></path>
                <path d="M2032.98,1723.69 L1654.55,1723.69 C1658.25,1728.06 1663.78,1730.83 1669.94,1730.83 L2017.58,1730.83 C2023.75,1730.83 2029.28,1728.06 2032.98,1723.69" id="Fill-156" fill="#FABA23"></path>
                <path d="M2062.05,1613.41 L2062.05,1641.89 C2062.05,1653.02 2053.03,1662.04 2041.9,1662.04 L1694.26,1662.04 C1683.13,1662.04 1674.11,1653.02 1674.11,1641.89 L1674.11,1613.41 C1674.11,1608.45 1675.89,1603.92 1678.87,1600.4 C1682.57,1596.03 1688.09,1593.26 1694.26,1593.26 L2041.9,1593.26 C2048.07,1593.26 2053.59,1596.03 2057.29,1600.4 C2060.27,1603.92 2062.05,1608.45 2062.05,1613.41" id="Fill-157" fill="#FAD332"></path>
                <polygon id="Fill-158" fill="#FABA23" points="1693.38 1662.04 1703.47 1662.04 1703.47 1593.26 1693.38 1593.26"></polygon>
                <polygon id="Fill-159" fill="#FABA23" points="1735.72 1662.04 1745.82 1662.04 1745.82 1593.26 1735.72 1593.26"></polygon>
                <polygon id="Fill-160" fill="#FABA23" points="1778.06 1662.04 1788.16 1662.04 1788.16 1593.26 1778.06 1593.26"></polygon>
                <polygon id="Fill-161" fill="#FABA23" points="1820.41 1662.04 1830.51 1662.04 1830.51 1593.26 1820.41 1593.26"></polygon>
                <polygon id="Fill-162" fill="#FABA23" points="1862.75 1662.04 1872.85 1662.04 1872.85 1593.26 1862.75 1593.26"></polygon>
                <polygon id="Fill-163" fill="#FABA23" points="1905.1 1662.04 1915.2 1662.04 1915.2 1593.26 1905.1 1593.26"></polygon>
                <polygon id="Fill-164" fill="#FABA23" points="1947.44 1662.04 1957.54 1662.04 1957.54 1593.26 1947.44 1593.26"></polygon>
                <polygon id="Fill-165" fill="#FABA23" points="1989.79 1662.04 1999.89 1662.04 1999.89 1593.26 1989.79 1593.26"></polygon>
                <polygon id="Fill-166" fill="#FABA23" points="2032.13 1662.04 2042.23 1662.04 2042.23 1593.26 2032.13 1593.26"></polygon>
                <path d="M2057.29,1600.4 L1678.87,1600.4 C1682.57,1596.03 1688.09,1593.26 1694.26,1593.26 L2041.9,1593.26 C2048.07,1593.26 2053.59,1596.03 2057.29,1600.4" id="Fill-167" fill="#FABA23"></path>
                <path d="M2057.29,1654.9 L1678.87,1654.9 C1682.57,1659.27 1688.09,1662.04 1694.26,1662.04 L2041.9,1662.04 C2048.07,1662.04 2053.59,1659.27 2057.29,1654.9" id="Fill-168" fill="#FABA23"></path>
                <path d="M767.374,1542.94 L767.374,1571.63 C767.374,1582.83 758.285,1591.92 747.078,1591.92 L396.946,1591.92 C385.739,1591.92 376.65,1582.83 376.65,1571.63 L376.65,1542.94 C376.65,1537.95 378.449,1533.38 381.443,1529.84 C385.171,1525.43 390.733,1522.64 396.946,1522.64 L747.078,1522.64 C753.291,1522.64 758.854,1525.43 762.581,1529.84 C765.575,1533.38 767.374,1537.95 767.374,1542.94" id="Fill-169" fill="#FAD332"></path>
                <polygon id="Fill-170" fill="#FABA23" points="396.056 1591.92 406.225 1591.92 406.225 1522.64 396.056 1522.64"></polygon>
                <polygon id="Fill-171" fill="#FABA23" points="438.704 1591.92 448.873 1591.92 448.873 1522.64 438.704 1522.64"></polygon>
                <polygon id="Fill-172" fill="#FABA23" points="481.352 1591.92 491.521 1591.92 491.521 1522.64 481.352 1522.64"></polygon>
                <polygon id="Fill-173" fill="#FABA23" points="524 1591.92 534.169 1591.92 534.169 1522.64 524 1522.64"></polygon>
                <polygon id="Fill-174" fill="#FABA23" points="566.648 1591.92 576.818 1591.92 576.818 1522.64 566.648 1522.64"></polygon>
                <polygon id="Fill-175" fill="#FABA23" points="609.297 1591.92 619.466 1591.92 619.466 1522.64 609.297 1522.64"></polygon>
                <polygon id="Fill-176" fill="#FABA23" points="651.945 1591.92 662.115 1591.92 662.115 1522.64 651.945 1522.64"></polygon>
                <polygon id="Fill-177" fill="#FABA23" points="694.594 1591.92 704.763 1591.92 704.763 1522.64 694.594 1522.64"></polygon>
                <polygon id="Fill-178" fill="#FABA23" points="737.242 1591.92 747.411 1591.92 747.411 1522.64 737.242 1522.64"></polygon>
                <path d="M762.581,1529.84 L381.443,1529.84 C385.171,1525.43 390.733,1522.64 396.946,1522.64 L747.078,1522.64 C753.291,1522.64 758.854,1525.43 762.581,1529.84" id="Fill-179" fill="#FABA23"></path>
                <path d="M762.581,1584.73 L381.443,1584.73 C385.171,1589.13 390.733,1591.92 396.946,1591.92 L747.078,1591.92 C753.291,1591.92 758.854,1589.13 762.581,1584.73" id="Fill-180" fill="#FABA23"></path>
                <path d="M2427.95,1586.19 C2393.65,1692.42 2279.72,1750.72 2173.5,1716.42 C2067.27,1682.11 2008.96,1568.19 2043.27,1461.96 C2077.57,1355.74 2191.49,1297.43 2297.72,1331.74 C2403.95,1366.04 2462.25,1479.96 2427.95,1586.19" id="Fill-181" fill="#FABA23"></path>
                <path d="M2393.6,1575.1 C2365.42,1662.35 2271.85,1710.24 2184.59,1682.06 C2175.48,1679.12 2166.8,1675.47 2158.59,1671.18 C2144.7,1663.93 2132.16,1654.88 2121.16,1644.41 C2117,1640.43 2113.05,1636.26 2109.33,1631.91 C2082.12,1599.98 2067.49,1558.3 2069.77,1515.36 C2070.51,1501.3 2073.08,1487.1 2077.62,1473.06 C2098.63,1407.99 2156.02,1364.8 2220.03,1358.74 C2241.84,1356.68 2264.45,1358.92 2286.63,1366.09 C2305.83,1372.29 2323.13,1381.65 2338.13,1393.43 C2342.66,1396.98 2346.98,1400.76 2351.08,1404.73 C2362.21,1415.51 2371.71,1427.76 2379.37,1441.04 C2402.03,1480.29 2408.62,1528.59 2393.6,1575.1" id="Fill-182" fill="#FAD332"></path>
                <path d="M2338.13,1393.43 L2109.33,1631.91 C2082.12,1599.98 2067.49,1558.3 2069.77,1515.36 L2220.03,1358.74 C2241.84,1356.68 2264.45,1358.92 2286.63,1366.09 C2305.83,1372.29 2323.13,1381.65 2338.13,1393.43" id="Fill-183" fill="#FAEE6C"></path>
                <path d="M2379.37,1441.04 L2158.59,1671.18 C2144.7,1663.93 2132.16,1654.88 2121.16,1644.41 L2351.08,1404.73 C2362.21,1415.51 2371.71,1427.76 2379.37,1441.04" id="Fill-184" fill="#FAEE6C"></path>
                <path d="M2246.75,1366.27 C2227.13,1364.21 2223.55,1366.14 2214.74,1383.54 C2216.93,1364.17 2215,1360.58 2197.47,1351.54 C2217.08,1353.6 2220.67,1351.66 2229.47,1334.27 C2227.42,1353.88 2229.35,1357.46 2246.75,1366.27" id="Fill-185" fill="#FFFFFF"></path>
                <path d="M2177.33,1678.11 C2160.78,1676.38 2157.76,1678.01 2150.32,1692.69 C2152.17,1676.33 2150.54,1673.31 2135.75,1665.68 C2152.3,1667.42 2155.32,1665.79 2162.76,1651.11 C2161.02,1667.66 2162.65,1670.68 2177.33,1678.11" id="Fill-186" fill="#FFFFFF"></path>
                <path d="M2421.51,642.676 C2401.65,681.657 2353.95,697.159 2314.97,677.302 C2275.99,657.444 2260.49,609.747 2280.35,570.766 C2300.2,531.784 2347.9,516.282 2386.88,536.139 C2425.86,555.997 2441.37,603.695 2421.51,642.676" id="Fill-187" fill="#D4DEFF"></path>
                <path d="M1847.88,356.918 L1911.35,267.435 C1911.35,267.435 1973.42,280.673 1993.09,356.986 C2005.29,404.291 2062.94,435.275 2062.94,435.275 L1999.14,525.231 C1999.14,525.231 1922.71,494.14 1909.68,439.829 C1895.9,382.391 1847.88,356.918 1847.88,356.918" id="Fill-189" fill="#D4DEFF"></path>
                <path d="M1981.5,433.114 C1962.65,445.306 1935.84,437.363 1921.62,415.374 C1907.39,393.383 1911.14,365.674 1929.99,353.48 C1948.84,341.289 1975.65,349.231 1989.87,371.221 C2004.1,393.21 2000.35,420.92 1981.5,433.114" id="Fill-190" fill="#E3EAFF"></path>
                <path d="M509.539,614.663 C534.868,648.167 528.24,695.862 494.736,721.191 C461.231,746.521 413.537,739.893 388.207,706.388 C362.878,672.883 369.505,625.188 403.01,599.859 C436.515,574.53 484.209,581.157 509.539,614.663" id="Fill-191" fill="#FFFFFF"></path>
                <path d="M1681.81,276.372 L1595.55,304.435 C1597.02,308.958 1598.5,313.479 1599.97,318.003 C1602.1,324.56 1623.25,323.558 1647.2,315.765 C1671.15,307.972 1688.84,296.339 1686.71,289.782 C1686.51,289.179 1681.81,276.372 1681.81,276.372" id="Fill-193" fill="#C2D0FF"></path>
                <path d="M1682.53,276.94 C1684.66,283.498 1666.97,295.13 1643.02,302.923 C1619.07,310.717 1597.92,311.718 1595.79,305.162 C1593.66,298.604 1611.34,286.972 1635.3,279.179 C1659.25,271.386 1680.39,270.384 1682.53,276.94" id="Fill-194" fill="#D4DEFF"></path>
                <path d="M2312.61,305.792 L2232.73,262.83 C2230.48,267.018 2228.22,271.207 2225.97,275.396 C2222.71,281.469 2238.04,296.063 2260.22,307.994 C2282.41,319.924 2303.04,324.672 2306.3,318.599 C2306.61,318.041 2312.61,305.792 2312.61,305.792" id="Fill-195" fill="#C2D0FF"></path>
                <path d="M2312.7,306.707 C2309.43,312.779 2288.8,308.03 2266.62,296.1 C2244.44,284.169 2229.1,269.576 2232.37,263.503 C2235.63,257.43 2256.26,262.179 2278.45,274.109 C2300.63,286.039 2315.97,300.634 2312.7,306.707" id="Fill-196" fill="#D4DEFF"></path>
                <path d="M2566.32,805.829 L2486.67,762.417 C2484.4,766.594 2482.12,770.771 2479.85,774.946 C2476.55,781 2491.8,795.68 2513.92,807.735 C2536.03,819.79 2556.64,824.654 2559.94,818.601 C2560.24,818.043 2566.32,805.829 2566.32,805.829" id="Fill-197" fill="#C2D0FF"></path>
                <path d="M2566.4,806.743 C2563.1,812.797 2542.5,807.933 2520.38,795.878 C2498.26,783.824 2483.01,769.143 2486.31,763.089 C2489.61,757.035 2510.21,761.899 2532.33,773.955 C2554.45,786.009 2569.7,800.688 2566.4,806.743" id="Fill-198" fill="#D4DEFF"></path>
                <path d="M2638.09,911.45 L2555.43,948.79 C2557.38,953.13 2559.34,957.46 2561.3,961.79 C2564.14,968.08 2585.05,964.77 2608,954.4 C2630.96,944.03 2647.27,930.53 2644.43,924.25 C2644.17,923.67 2638.09,911.45 2638.09,911.45" id="Fill-199" fill="#C2D0FF"></path>
                <path d="M2638.87,911.94 C2641.71,918.22 2625.4,931.72 2602.44,942.09 C2579.49,952.46 2558.58,955.77 2555.74,949.49 C2552.9,943.21 2569.21,929.71 2592.16,919.33 C2615.12,908.97 2636.03,905.66 2638.87,911.94" id="Fill-200" fill="#D4DEFF"></path>
                <path d="M668.631,522.415 L586.51,483.899 C584.49,488.205 582.471,492.511 580.45,496.817 C577.522,503.06 593.637,516.791 616.44,527.486 C639.245,538.183 660.105,541.792 663.033,535.55 C663.303,534.975 668.631,522.415 668.631,522.415" id="Fill-201" fill="#C2D0FF"></path>
                <path d="M668.768,523.323 C665.84,529.565 644.979,525.956 622.175,515.261 C599.37,504.564 583.257,490.833 586.185,484.591 C589.112,478.348 609.973,481.958 632.777,492.654 C655.582,503.35 671.695,517.08 668.768,523.323" id="Fill-202" fill="#D4DEFF"></path>
                <path d="M774.338,700.746 L689.437,732.668 C691.11,737.12 692.784,741.572 694.458,746.023 C696.885,752.479 717.965,750.523 741.542,741.658 C765.118,732.793 782.264,720.375 779.837,713.921 C779.614,713.328 774.338,700.746 774.338,700.746" id="Fill-203" fill="#C2D0FF"></path>
                <path d="M775.084,701.282 C777.511,707.736 760.365,720.154 736.789,729.019 C713.212,737.884 692.132,739.838 689.705,733.384 C687.279,726.93 704.424,714.512 728.001,705.646 C751.578,696.782 772.657,694.827 775.084,701.282" id="Fill-204" fill="#D4DEFF"></path>
                <path d="M914.407,891.462 C899.261,876.183 909.197,860.514 909.197,860.514 C900.886,858.73 857.037,925.15 838.13,967.36 C805.149,934.13 747.037,889.237 731.324,886.619 C731.324,886.619 710.124,880.922 702.507,906.55 C695.708,929.43 722.224,945.64 722.224,945.64 C722.224,945.64 835.653,1025.72 852.429,1018.6 C878.534,1007.52 902.158,912.21 914.407,891.462" id="Fill-205" fill="#F37A50"></path>
                <path d="M938.091,889.574 C928.835,890.139 916.671,885.563 913.104,893.861 L895.556,884.955 L894.45,873.938 C910.146,848.787 948.409,841.65 952.198,841.317 C962.04,840.452 966.61,839.437 967.38,840.753 C968.15,842.068 970.56,850.832 956.276,852.546 C938.354,854.7 950.253,869.027 986.61,855.389 C995.72,851.974 1012.85,856.406 1006.65,863.059 C999.82,870.391 980.21,887.006 938.091,889.574" id="Fill-206" fill="#F37A50"></path>
                <path d="M660.95,680.955 C636.29,655.697 586.159,651.809 576.902,688.51 C567.646,725.211 568.571,750.06 522.706,741.576 C486.182,734.819 446.39,765.609 443.332,817.537 C439.421,883.971 486.982,860.832 474.376,893.017 C461.771,925.2 452.935,958.08 500.359,961.97 C547.785,965.85 587.017,928.26 584.645,873.926 C582.272,819.592 615.677,841.457 627.315,815.342 C643.864,778.209 660.95,680.955 660.95,680.955" id="Fill-207" fill="#201D40"></path>
                <path d="M776.005,1686.26 L797.393,1602.02 L744.328,1594.71 C742.507,1634.55 739.528,1673.78 739.788,1684.4 L776.005,1686.26" id="Fill-208" fill="#F37A50"></path>
                <path d="M649.384,1594.23 L593.978,1594.23 C595.8,1607.51 603.065,1679.4 603.065,1679.4 C607.748,1690.03 649.037,1687.6 649.037,1681.63 C645.915,1668.68 649.124,1595.89 649.384,1594.23" id="Fill-209" fill="#F37A50"></path>
                <path d="M739.98,1627.16 L794.62,1635.22 L832.509,1408.65 C824.706,1322.66 749.011,1139.73 749.011,1139.73 L663.69,1169.61 L661.609,1250.29 L764.357,1424.25 C750.964,1457.89 741.802,1566.67 739.98,1627.16" id="Fill-210" fill="#C4204A"></path>
                <path d="M697.747,1145.79 C696.966,1140.48 696.706,1138.82 692.284,1136.17 L610.347,1112.93 L590.837,1132.18 C572.368,1199.24 583.813,1292.53 598.38,1366.57 C577.051,1430.64 585.395,1562.73 593.978,1624.82 L652.245,1624.82 C655.627,1583.32 654.566,1506.34 654.827,1469.15 C662.37,1439.28 669.653,1407.4 676.157,1373.87 C684.48,1331.04 694.886,1289.55 697.747,1250.7 C700.349,1213.85 701.128,1174.35 697.747,1145.79" id="Fill-211" fill="#E62552"></path>
                <path d="M613.667,776.364 C613.356,820.9 641.46,857.203 676.438,857.446236 C711.417,857.689 740.024,821.783 740.335,777.247 C740.646,732.711 712.542,696.411 677.563,696.165754 C642.584,695.922 613.977,731.829 613.667,776.364" id="Fill-212" fill="#F37A50"></path>
                <path d="M635.155,820.666 L686.024,849.554 C686.024,849.554 690.538,870.151 692.791,876.833 C697.44,890.624 679.627,896.649 664.567,888.065 C649.509,879.481 639.759,867.996 639.759,867.996 L635.155,820.666" id="Fill-213" fill="#F37A50"></path>
                <path d="M742.104006,768.529 C729.978,767.423 662.479,749.992 654.675,737.797 C655.312,766.761 611.674,799.811 605.825,791.309 C585.39,737.758 600.283,691.911 660.204,679.955 C742.372,663.561 742.104006,768.529 742.104006,768.529" id="Fill-214" fill="#2C2858"></path>
                <path d="M665.345,791.189 C667.406,794.47 671.736,795.459 675.017,793.398 C678.298,791.337 679.287,787.007 677.226,783.727 C675.165,780.446 670.835,779.457 667.554,781.518 C664.273,783.579 663.284,787.909 665.345,791.189" id="Fill-215" fill="#000000"></path>
                <path d="M714.38,790.53 C716.313,793.609 720.379,794.538 723.458,792.603 C726.538,790.669 727.467,786.604 725.532,783.524 C723.598,780.445 719.532,779.517 716.453,781.451 C713.374,783.386 712.444,787.45 714.38,790.53" id="Fill-216" fill="#000000"></path>
                <path d="M732.509,776.623 C732.757,776.511 732.989,776.353 733.194,776.147 C734.197,775.143 734.183,773.383 733.163,772.216 C725.245,763.163 715.52,765.794 715.109,765.911 C713.763,766.293 713.045,767.813 713.515,769.304 C713.983,770.791 715.452,771.687 716.799,771.312 C717.118,771.226 723.965,769.486 729.534,775.855 C730.345,776.782 731.547,777.054 732.509,776.623" id="Fill-217" fill="#2C2858"></path>
                <path d="M658.523,777.916 C658.274,777.805 658.043,777.647 657.837,777.441 C656.835,776.437 656.849,774.676 657.868,773.51 C665.788,764.457 675.513,767.087 675.923,767.205 C677.271,767.587 677.987,769.107 677.518,770.598 C677.05,772.083 675.581,772.981 674.233,772.605 C673.914,772.52 667.067,770.78 661.499,777.147 C660.688,778.075 659.485,778.349 658.523,777.916" id="Fill-218" fill="#2C2858"></path>
                <path d="M709.394,795.281 C711.451,799.605 713.087,803.896 715.46,806.822 C716.26,807.807 716.126,809.271 715.181,810.119 C711.276,813.614 702.952,814.76 697.959,815.134 C697.229,815.187 696.99,814.176 697.665,813.896 C703.381,811.527 706.237,809.325 707.563,808.033 C708.221,807.391 708.52,806.474 708.39,805.563 C708.093,803.473 707.528,799.223 707.333,795.798 C707.266,794.615 708.885,794.211 709.394,795.281" id="Fill-219" fill="#DE623C"></path>
                <path d="M630.172,794.075 C637.476,801.581 638.417,812.511 632.275,818.488 C626.133,824.466 615.232,823.227 607.929,815.72 C600.624,808.216 599.683,797.285 605.825,791.309 C611.968,785.331 622.868,786.57 630.172,794.075" id="Fill-220" fill="#F37A50"></path>
                <path d="M625.263,812.297 C625.554,812.113 625.81,811.861 626,811.546 C628.742,807.032 628.571,802.281 625.543,798.837 C622.442,795.312 617.21,794.078 613.104,795.902 C611.948,796.416 611.427,797.767 611.94,798.924 C612.454,800.079 613.807,800.599 614.962,800.087 C617.212,799.087 620.35,799.868 622.104,801.863 C623.79,803.779 623.784,806.375 622.085,809.169 C621.429,810.25 621.772,811.659 622.854,812.315 C623.62,812.781 624.552,812.743 625.263,812.297" id="Fill-221" fill="#DE623C"></path>
                <path d="M752.258,1145.82 C663.37,1179.99 585.872,1154.74 585.872,1154.74 C586.141,1142.92 584.464,1105.66 602.445,1064.91 C598.083,1030.4 599.749,978.54 598.385,958.65 C608.972,905.28 603.943,900.763 594.392,875.618 L627.651,865.8 L687.517,886.912 L691.963,872.475 C691.963,872.475 729.325,883.8 737.22,888.163 L751.571,945.02 L748.502,1070.76 C748.502,1070.76 748.634,1138.12 752.258,1145.82" id="Fill-222" fill="#3F964F"></path>
                <path d="M693.407,838.342 C691.937,838.488 690.464,838.492 688.987,838.357 C678.088,837.357 671.21,828.982 670.923,828.627 C670.034,827.526 670.206,825.913 671.306,825.025 C672.405,824.138 674.014,824.307 674.903,825.403 C674.962,825.475 680.779,832.484 689.504,833.26 C695.188,833.766 700.967,831.541 706.68,826.645 C707.753,825.725 709.37,825.849 710.291,826.924 C711.212,827.997 711.087,829.614 710.013,830.535 C704.604,835.169 699.036,837.784 693.407,838.342" id="Fill-223" fill="#DE623C"></path>
                <path d="M763.097,1684.9 C768.646,1670.33 780.509,1668.7 780.509,1668.7 C803.567,1699.46 860.196,1680.59 858.321,1722.19 C772.208,1721.66 736.419,1722.19 736.419,1722.19 C736.532,1712.64 738.234,1689.96 740.22,1681.08 L744.708,1681.88 L763.097,1684.9" id="Fill-224" fill="#2C2858"></path>
                <path d="M853.337,1733.3 L741.446,1733.3 C738.67,1733.3 736.419,1731.05 736.419,1728.27 L736.419,1721.04 L858.366,1721.04 L858.366,1728.27 C858.366,1731.04 856.115,1733.3 853.337,1733.3" id="Fill-225" fill="#FFFFFF"></path>
                <path d="M658.905,1722.59 C658.905,1722.59 651.993,1696.8 651.384,1693.49 C650.69,1689.72 648.659,1680.82 648.244,1676.25 C648.142,1675.12 636.272,1667.86 627.21,1667.87996 C614.933,1667.9 603.743,1675.01 603.518,1676.35 C602.067,1684.96 602.024,1695.08 599.677,1703.46 C597.931,1709.7 593.187,1724.22 593.187,1724.22 L658.905,1722.59" id="Fill-226" fill="#2C2858"></path>
                <path d="M658.905,1720.59 C657.293,1725.71 637.417,1719.8 622.911,1719.80999 C610.733,1719.80999 594.977,1724.53 593.187,1722.69 C590.142,1728.07 592.649,1739.22 592.649,1739.22 C592.649,1739.22 605.34,1739.87 620.562,1739.22 C635.782,1738.56 653.372,1739.53 659.998,1737.56 C664.179,1730.57 658.905,1720.59 658.905,1720.59" id="Fill-227" fill="#FFFFFF"></path>
                <path d="M623.614,866.992 C636.461,887.594 663.679,944.56 660.95,1019.05 C658.222,1093.54 639.578,1184.04 648.177,1267.02 C604.407,1270.91 562.632,1265.29 562.632,1265.29 C567.294,1216.33 594.392,875.618 594.392,875.618 C608.111,871.568 623.614,866.992 623.614,866.992" id="Fill-228" fill="#201D40"></path>
                <path d="M556.293,1078.68 L564.396,1081.92 C564.396,1081.92 570.364,1068.17 578.929,1068.6 L577.829,1082.21 C577.829,1082.21 581.981,1096.74 607.929,1095.03 C630.093,1100.06 614.587,1110.59 620.724,1114.8 C629.777,1121.01 604.386,1136.26 582.993,1129.68 C555.312,1121.17 537.327,1095.03 537.327,1095.03 L556.293,1078.68" id="Fill-229" fill="#F37A50"></path>
                <path d="M594.392,875.618 C594.392,875.618 516.341,910.25 472.728,1000.91 C498.198,1036.77 525.678,1015.44 525.678,1015.44 L598.385,958.65 C598.385,958.65 615.759,934.54 611.886,907.53 C608.13,881.337 594.392,875.618 594.392,875.618" id="Fill-230" fill="#F37A50"></path>
                <path d="M557.601,1079.2 L521.045,1014.76 C521.045,1014.76 514.723,985.84 472.728,1000.91 C470.694,1023.49 463.532,1047 538.435,1096.54 C548.16,1088.95 557.601,1079.2 557.601,1079.2" id="Fill-231" fill="#F37A50"></path>
                <path d="M639.212,859.141 L615.759,869.103 C618.234,897.267 681.257,914.1 681.257,914.1 L687.514,886.912 L639.212,859.141" id="Fill-232" fill="#0E6A41"></path>
                <path d="M710.907,876.666 C722.432,913.48 739.811,964.84 735.071,1019.94 C730.331,1075.03 724.61,1163.93 752.258,1257.93 C772.796,1261.88 800.765,1258.91 800.765,1258.91 C800.765,1258.91 760.301,1120.86 762.096,1059.51 C764.087,991.41 760.968,930.14 744.224,891.16 C731.63,885.736 710.907,876.666 710.907,876.666" id="Fill-233" fill="#201D40"></path>
                <path d="M687.514,886.912 L706.071,907.53 C706.071,907.53 722.116,890.935 716.309,880.678 C710.501,870.421 689.814,863.501 689.814,863.501 L687.514,886.912" id="Fill-234" fill="#0E6A41"></path>
                <path d="M2432.77,902.03 C2406.24,911.09 2319.54,1066.93 2319.54,1066.93 L2386.35,1071.32 L2457.91,998.8 L2432.77,902.03" id="Fill-235" fill="#201D40"></path>
                <path d="M2522.09,1673.02 C2497.38,1705.99 2436.68,1685.76 2438.69,1730.35 C2530.99,1729.77 2569.35,1730.35 2569.35,1730.35 C2569.22,1720.11 2567.4,1695.8 2565.27,1686.28 L2522.09,1673.02" id="Fill-236" fill="#000000"></path>
                <path d="M2660.18,1673.89 C2635.47,1706.85 2574.77,1686.62 2576.78,1731.21 C2669.08,1730.64 2707.44,1731.21 2707.44,1731.21 C2707.32,1720.97 2705.49,1696.66 2703.36,1687.15 L2660.18,1673.89" id="Fill-237" fill="#000000"></path>
                <path d="M2469.01,1168.36 C2469.01,1168.36 2454.2,1380.74 2460.28,1427.72 C2466.37,1474.69 2498.11,1535.2 2495.67,1690.57 C2525.75,1697.86 2569.35,1690.57 2569.35,1690.57 C2569.35,1690.57 2575.81,1514.89 2544,1436.42 C2556.94,1360.19 2598.44,1185.61 2598.44,1185.61 L2469.01,1168.36" id="Fill-238" fill="#201D40"></path>
                <path d="M2560.55,1175.8 C2560.55,1175.8 2561.92,1410.27 2576.73,1455.26 C2591.55,1500.25 2620.33,1532.35 2647.15,1685.41 C2678.07,1686.91 2722.59,1687.55 2722.59,1687.55 C2722.59,1687.55 2706.76,1490.83 2658.6,1446.67 C2656.97,1369.38 2676.84,1174.32 2676.84,1174.32 L2560.55,1175.8" id="Fill-239" fill="#2C2858"></path>
                <polyline id="Fill-240" fill="#95A6DB" points="2486.27 869.975 2526.23 856.81 2568.26 858.777 2534.24 914.78 2486.27 869.975"></polyline>
                <path d="M2500.57,896.073 C2520.34,905.92 2545.15,903.37 2562.59,887.439 L2554.6,824.342 L2496.01,832.988 L2500.57,896.073" id="Fill-241" fill="#F37A50"></path>
                <path d="M2583.76,878.256 L2583.76,878.256 L2570.56,876.238 L2568.26,858.776 L2540.87,893.425 L2531.74,897.104 L2521.95,896.009 L2486.27,869.975 L2488.74,887.415 L2478.55,892.002 L2441.48,907.06 L2485.85,1121.83 L2487.22,1193.2 C2542.21,1198.49 2600.42,1194.47 2654.81,1173.86 L2636.21,1101.3 L2628.26,883.282 L2583.76,878.256" id="Fill-242" fill="#95A6DB"></path>
                <polyline id="Fill-243" fill="#E62552" points="2524.49 920.68 2531 1089.78 2547.98 1105.97 2563.01 1089.19 2537.43 919.67 2524.49 920.68"></polyline>
                <polyline id="Fill-244" fill="#E62552" points="2512.08 901.27 2527.08 896.254 2544.54 897.954 2537.48 920 2524.52 921.24 2512.08 901.27"></polyline>
                <path d="M2483.75,878.136 L2506.43,1067.45 L2525.46,1200.38 C2525.46,1200.38 2488.84,1218.28 2457.97,1199.97 L2432.26,902.09 L2483.75,878.136" id="Fill-245" fill="#2C2858"></path>
                <polyline id="Fill-246" fill="#494C7F" points="2484.46 876.032 2508.31 1080.56 2460.38 925.17 2484.46 876.032"></polyline>
                <path d="M2569.61,860.523 L2597.46,1197.54 C2597.46,1197.54 2667.87,1201.88 2693.96,1180.08 L2666.74,1075.65 L2625.83,860.057 L2569.61,860.523" id="Fill-247" fill="#2C2858"></path>
                <polyline id="Fill-248" fill="#494C7F" points="2568.87 859.942 2586.59 1066.05 2604.16 900.258 2568.87 859.942"></polyline>
                <path d="M2569.74,777.057 C2565.23,820.969 2533.62,853.7 2499.13,850.161 C2464.64,846.622 2440.34,808.154 2444.84,764.241 C2449.35,720.328 2480.96,687.598 2515.45,691.137 C2549.94,694.675 2574.24,733.143 2569.74,777.057" id="Fill-249" fill="#F37A50"></path>
                <path d="M2462.93,780.653 C2459.63,782.061 2455.81,780.524 2454.4,777.222 C2452.99,773.919 2454.53,770.101 2457.83,768.693 C2461.14,767.286 2464.95,768.822 2466.36,772.125 C2467.77,775.428 2466.23,779.246 2462.93,780.653" id="Fill-250" fill="#000000"></path>
                <path d="M2512.31,774.576 C2510.96,777.92 2507.16,779.541 2503.82,778.194 C2500.47,776.849 2498.85,773.047 2500.2,769.703 C2501.54,766.359 2505.34,764.738 2508.69,766.085 C2512.03,767.431 2513.65,771.232 2512.31,774.576" id="Fill-251" fill="#000000"></path>
                <path d="M2477.66,772.14 C2474.22,783.193 2469.74,796.754 2469.74,796.754 C2469.74,796.754 2475.84,805.857 2489.09,802.531 C2482.89,801.686 2476.37,799.375 2476.7,791.321 C2477.02,783.268 2477.66,772.14 2477.66,772.14" id="Fill-252" fill="#DE623C"></path>
                <path d="M2519.67,762.8 C2518.49,763.484 2516.96,763.304 2515.98,762.276 C2515.75,762.039 2510.05,756.284 2504.23,759.641 C2502.79,760.471 2500.96,759.977 2500.13,758.538 C2499.29,757.098 2499.8,755.252 2501.23,754.428 C2509.18,749.845 2517.2,754.839 2520.33,758.122 C2521.48,759.324 2521.44,761.228 2520.23,762.375 C2520.06,762.542 2519.87,762.684 2519.67,762.8" id="Fill-253" fill="#2C2858"></path>
                <path d="M2448.33,769.582 C2449.63,769.99 2451.08,769.472 2451.81,768.252 C2451.98,767.97 2456.26,761.094 2462.68,763.075 C2464.27,763.564 2465.95,762.674 2466.44,761.086 C2466.93,759.499 2466.03,757.811 2464.45,757.325 C2455.68,754.621 2448.97,761.273 2446.64,765.168 C2445.79,766.595 2446.26,768.442 2447.68,769.293 C2447.89,769.417 2448.11,769.513 2448.33,769.582" id="Fill-254" fill="#2C2858"></path>
                <path d="M2563.32,779.549 C2559.75,763.926 2546.9,770.352 2540.75,750.078 C2534.59,729.805 2529.05,714.626 2510.28,722.49 C2491.51,730.355 2485.78,726.809 2476.83,723.984 C2449.91,715.491 2445.33,760.229 2445.33,760.229 C2445.33,760.229 2422.84,727.229 2439.86,705.895 C2458.72,682.246 2466.63,696.139 2484.68,678.46 C2502.73,660.782 2534.91,662.583 2543.97,673.998 C2553.53,686.033 2556.88,695.441 2577.34,700.734 C2597.8,706.027 2610.54,719.703 2597.95,743.161 C2585.36,766.618 2616.71,774.389 2592.18,798.973 C2582.67,808.508 2563.84,814.54 2559.87,811.238 C2554.55,806.818 2565.62,789.621 2563.32,779.549" id="Fill-255" fill="#2C2858"></path>
                <path d="M2445.2,787.992 C2445.2,787.992 2450.85,808.925 2456.35,814.879 C2456.85,804.721 2472.28,812.257 2479.41,810.978 C2496.66,807.886 2519.68,792.604 2530.55,816.477 C2552.82,816.425 2559.02,767.864 2559.02,767.864 C2575.61,815.847 2551.55,853.217 2498.06,861.42 C2462.83,866.825 2440.93,823.986 2445.2,787.992" id="Fill-256" fill="#2C2858"></path>
                <path d="M2555.38,769.555 C2548.99,778.18 2549.54,789.412 2556.6,794.641 C2563.65,799.87 2574.56,797.116 2580.95,788.491 C2587.34,779.865 2586.79,768.634 2579.73,763.405 C2572.68,758.176 2561.77,760.929 2555.38,769.555" id="Fill-257" fill="#F37A50"></path>
                <path d="M2566.07,789.908 C2565.72,789.84 2565.39,789.694 2565.09,789.465 C2560.79,786.171 2559.19,781.568 2560.8,777.155 C2562.46,772.636 2567,769.513 2571.6,769.73 C2572.89,769.792 2573.89,770.891 2573.83,772.185 C2573.77,773.479 2572.67,774.479 2571.38,774.419 C2568.85,774.3 2566.15,776.21 2565.21,778.768 C2564.31,781.225 2565.28,783.701 2567.94,785.741 C2568.97,786.529 2569.17,788.003 2568.38,789.031 C2567.82,789.76 2566.91,790.07 2566.07,789.908" id="Fill-258" fill="#DE623C"></path>
                <path d="M2491.32,826.352 C2489.92,826.82 2488.48,827.154 2487.02,827.35 C2476.18,828.8 2467.62,822.174 2467.26,821.893 C2466.15,821.019 2465.96,819.411 2466.84,818.3 C2467.71,817.192 2469.31,817 2470.42,817.869 C2470.5,817.924 2477.72,823.458 2486.39,822.273 C2492.04,821.501 2497.17,818.049 2501.64,812.012 C2502.48,810.877 2504.08,810.639 2505.22,811.481 C2506.35,812.323 2506.59,813.924 2505.75,815.059 C2501.51,820.774 2496.67,824.558 2491.32,826.352" id="Fill-259" fill="#DE623C"></path>
                <polyline id="Fill-260" fill="#FFFFFF" points="2527.08 896.254 2559.74 919.32 2577.2 870.383 2568.26 858.777 2527.08 896.254"></polyline>
                <polyline id="Fill-261" fill="#FFFFFF" points="2527.08 896.254 2506.98 923.06 2480.78 883.553 2486.27 869.975 2527.08 896.254"></polyline>
                <polyline id="Fill-262" fill="#F37A50" points="2294.74 808.914 2294.7 808.914 2266.69 809.015 2260.35 875.177 2293.05 892.442 2327.92 875.372 2322.28 809.015 2294.74 808.914"></polyline>
                <path d="M2353.55,764.503 C2346.8,810.412 2312.09,843.328 2276.04,838.024 C2239.98,832.72 2216.23,791.206 2222.98,745.298 C2229.73,699.391 2264.43,666.474 2300.49,671.777 C2336.54,677.08 2360.3,718.595 2353.55,764.503" id="Fill-263" fill="#F37A50"></path>
                <path d="M2240.58,755.629 C2239.3,758.888 2235.62,760.496 2232.36,759.219 C2229.1,757.944 2227.5,754.268 2228.77,751.008 C2230.05,747.749 2233.72,746.141 2236.98,747.417 C2240.24,748.693 2241.85,752.369 2240.58,755.629" id="Fill-264" fill="#000000"></path>
                <path d="M2291.25,763.438 C2289.87,766.966 2285.89,768.707 2282.36,767.325 C2278.83,765.944 2277.09,761.964 2278.47,758.436 C2279.85,754.907 2283.83,753.167 2287.36,754.548 C2290.89,755.929 2292.63,759.909 2291.25,763.438" id="Fill-265" fill="#000000"></path>
                <path d="M2252.29,763.228 C2245.52,771.791 2237,782.208 2237,782.208 C2237,782.208 2239.29,792.279 2252.07,793.83 C2246.9,790.991 2241.95,786.755 2244.96,779.779 C2247.96,772.802 2252.29,763.228 2252.29,763.228" id="Fill-266" fill="#DE623C"></path>
                <path d="M2302.44,756.52 C2302.67,756.463 2302.91,756.378 2303.13,756.264 C2304.69,755.475 2305.32,753.571 2304.53,752.013 C2302.37,747.759 2295.81,740.295 2286.42,742.491 C2284.72,742.918 2283.67,744.591 2284.07,746.292 C2284.46,747.993 2286.16,749.049 2287.87,748.65 C2294.82,747.023 2298.84,754.792 2298.88,754.871 C2299.56,756.203 2301.05,756.852 2302.44,756.52" id="Fill-267" fill="#201D40"></path>
                <path d="M2243.91,741.047 C2244.35,740.941 2244.77,740.722 2245.12,740.385 C2246.17,739.377 2246.21,737.709 2245.2,736.659 C2245.04,736.495 2241.27,732.629 2235.95,732.903 C2232.32,733.091 2229,735.089 2226.08,738.842 C2225.19,739.989 2225.39,741.646 2226.54,742.54 C2227.69,743.434 2229.34,743.227 2230.24,742.079 C2232.18,739.588 2234.19,738.272 2236.23,738.167 C2239.11,738.018 2241.38,740.286 2241.4,740.309 C2242.07,741.009 2243.03,741.257 2243.91,741.047" id="Fill-268" fill="#201D40"></path>
                <path d="M2368.97,727.735 C2373.5,683.967 2333.4,669.014 2333.4,669.014 C2333.4,669.014 2342.47,665.967 2340.47,652.688 C2334.05,656.51 2326.23,658.213 2318.81,657.373 C2268.77,651.709 2237.12,659.507 2241.83,679.213 C2243.51,686.226 2211.09,688.79 2224.92,735.356 C2226.16,732.09 2231.03,709.977 2240.84,705.587 C2250.68,701.183 2244.65,717.136 2266.81,714.954 C2289.18,712.752 2303.84,703.69 2319.99,712.738 C2332.88,720.914 2352.07,781.228 2349.01,783.348 C2358.51,776.765 2366.97,746.969 2368.97,727.735" id="Fill-269" fill="#201D40"></path>
                <path d="M2222.27,770.403 C2222.27,770.403 2226.19,795.457 2231.55,802.21 C2232.89,791.468 2243.3,800.027 2250.98,799.232 C2269.53,797.312 2300.53,783.565 2310.19,809.763 C2333.82,811.466 2347.58,761.904 2347.58,761.904 C2361.4,814.14 2325.67,850.779 2268.25,855.263 C2230.42,858.218 2214.91,808.271 2222.27,770.403" id="Fill-270" fill="#201D40"></path>
                <path d="M2272.21,811.72 C2275.56,810.022 2278.92,807.685 2282.27,804.715 C2283.14,803.943 2283.22,802.611 2282.45,801.738 C2281.67,800.869 2280.34,800.789 2279.47,801.56 C2272.05,808.144 2264.73,811.263 2257.71,810.831 C2249.04,810.296 2243.72,804.371 2243.67,804.31 C2242.9,803.439 2241.57,803.351 2240.7,804.115 C2239.82,804.88 2239.73,806.207 2240.49,807.083 C2240.75,807.38 2246.93,814.357 2257.37,815.035 C2262.27,815.352 2267.23,814.239 2272.21,811.72" id="Fill-271" fill="#DE623C"></path>
                <path d="M2338.74,755.929 C2330.72,763.338 2329.15,774.658 2335.21,781.214 C2341.27,787.769 2352.68,787.078 2360.69,779.669 C2368.7,772.259 2370.28,760.94 2364.22,754.384 C2358.16,747.829 2346.75,748.521 2338.74,755.929" id="Fill-272" fill="#F37A50"></path>
                <path d="M2345.56,778.276 C2345.23,778.144 2344.92,777.934 2344.67,777.648 C2341,773.546 2340.27,768.647 2342.71,764.544 C2345.22,760.342 2350.34,758.08 2354.89,759.165 C2356.18,759.472 2356.97,760.758 2356.66,762.039 C2356.36,763.321 2355.07,764.112 2353.79,763.807 C2351.29,763.212 2348.23,764.609 2346.81,766.986 C2345.45,769.271 2345.95,771.927 2348.22,774.467 C2349.1,775.449 2349.02,776.958 2348.04,777.836 C2347.34,778.458 2346.38,778.598 2345.56,778.276" id="Fill-273" fill="#DE623C"></path>
                <path d="M2243.62,1674.47 C2218.85,1708.65 2158.03,1687.68 2160.04,1733.9 C2252.54,1733.3 2290.98,1733.9 2290.98,1733.9 C2290.85,1723.28 2289.03,1698.08 2286.89,1688.22 L2243.62,1674.47" id="Fill-274" fill="#000000"></path>
                <path d="M2382.01,1675.37 C2357.24,1709.54 2296.42,1688.57 2298.43,1734.79 C2390.92,1734.2 2429.37,1734.79 2429.37,1734.79 C2429.24,1724.18 2427.41,1698.98 2425.28,1689.12 L2382.01,1675.37" id="Fill-275" fill="#000000"></path>
                <path d="M2200.8,1152.76 C2200.8,1152.76 2185.78,1371.79 2191.88,1420.48 C2197.99,1469.18 2219.59,1531.6 2217.14,1692.67 C2247.29,1700.22 2290.98,1692.67 2290.98,1692.67 C2290.98,1692.67 2297.45,1510.55 2265.58,1429.2 C2278.54,1350.19 2320.13,1169.21 2320.13,1169.21 L2200.8,1152.76" id="Fill-276" fill="#4364CC"></path>
                <path d="M2257.87,1158.75 C2257.87,1158.75 2288.2,1404.64 2303.04,1451.28 C2317.88,1497.92 2330.8,1532.09 2357.67,1690.75 C2388.66,1692.3 2433.42,1691.34 2433.42,1691.34 C2433.42,1691.34 2429.37,1494.76 2381.11,1448.99 C2379.47,1368.87 2388.91,1160.33 2388.91,1160.33 L2257.87,1158.75" id="Fill-277" fill="#768FDB"></path>
                <path d="M2397.66,879.683 C2397.66,879.683 2345,861.243 2327.43,869.699 C2272.86,895.976 2260.35,869.699 2260.35,869.699 C2242.91,871.205 2190.27,879.683 2190.27,879.683 C2190.27,938.47 2186.34,997.46 2187.42,1041.94 C2188.17,1080.68 2180.78,1186.11 2180.78,1186.11 C2180.78,1186.11 2238.85,1201.33 2293.78,1201.73 C2348.71,1201.37 2404.61,1186.73 2404.61,1186.73 C2404.61,1186.73 2401.68,1079.95 2399.24,1040.26 C2400.03,995.78 2397.66,938.31 2397.66,879.683" id="Fill-278" fill="#E62552"></path>
                <path d="M2096.65,967.05 C2118.39,915.19 2182.9,882.197 2190.27,879.683 L2205.23,946.27 C2174.24,964.59 2151.75,984.42 2151.75,984.42 C2155.56,1002.96 2154.92,1021.14 2165.66,1044.59 C2165.66,1044.59 2156.34,1031.73 2144.84,1039.34 C2133.66,1046.74 2113.1,1031.64 2113.1,1031.64 C2113.1,1031.64 2080.05,1006.67 2096.65,967.05" id="Fill-279" fill="#C4204A"></path>
                <path d="M2108.76,1098.13 C2108.39,1098.24 2108.01,1098.31 2107.63,1098.35 L2106.4,1098.35 C2104.13,1098.11 2102.11,1096.56 2101.4,1094.25 L2043.44,907.41 C2043.33,907.03 2043.25,906.65 2043.21,906.28 C2043.19,906.03 2043.19845,905.78 2043.21,905.54 C2043.21,905.39 2043.19,905.24 2043.21,905.09 C2043.22,904.96 2043.26,904.84 2043.28,904.71 C2043.63,902.59 2045.12,900.73 2047.31,900.044 C2047.66,899.935 2048.03,899.851 2048.41,899.808 C2048.84,899.761 2049.26,899.767 2049.67,899.808 L2195.56,899.808 L2254.02,1098.35 L2108.67,1098.35 L2108.76,1098.13" id="Fill-280" fill="#768FDB"></path>
                <path d="M2194.23,900.041 C2197.34,899.078 2200.64,900.812 2201.6,903.92 L2259.19,1090.29 L2259.32,1090.73 C2260.27,1093.82 2258.55,1097.1 2255.47,1098.07 L2255.46,1098.09 C2252.36,1099.05 2249.06,1097.32 2248.09,1094.21 L2190.36,907.41 C2189.39,904.3 2191.13,901.01 2194.23,900.041" id="Fill-281" fill="#4364CC"></path>
                <path d="M2084.01,1018.58 C2083.47,1018.22 2082.88,1017.99 2082.27,1017.82 C2082.33,1017.73 2082.4,1017.64 2082.46,1017.55 C2086.09,1012.08 2085.84,1005.53 2081.92,1002.93 C2081.27,1002.5 2080.57,1002.22 2079.82,1002.05 C2080.84,998 2079.93,994.13 2077.12,992.27 C2076.01,991.53 2074.72,991.2 2073.36,991.22 C2074.64,987.23 2073.62,983.05 2070.48,980.97 C2066.55,978.37 2060.86,980.05 2057.76,984.72 C2054.66,989.4 2055.33,995.29 2059.26,997.9 C2060.26,998.55 2061.37,998.94 2062.51,999.07 C2059.9,1004.16 2060.43,1009.74 2063.98,1012.09 C2064.63,1012.52 2065.33,1012.8 2066.08,1012.97 C2065.05,1017.02 2065.97,1020.89 2068.77,1022.75 C2069.81,1023.44 2071,1023.77 2072.25,1023.81 C2070.95,1027.29 2071.78,1031.04 2074.54,1032.87 C2077.86,1035.07 2082.67,1033.65 2085.28,1029.7 C2087.9,1025.76 2087.33,1020.78 2084.01,1018.58" id="Fill-282" fill="#F37A50"></path>
                <path d="M2263.37,1006.77 L2250.07,999.06 C2250.07,999.06 2246.39,980.2 2225.03,979.75 C2227.48,987.66 2231,999.06 2231,999.06 C2231,999.06 2220.49,1007.22 2195.56,993.26 C2171.19,987.78 2181.6,1005.55 2173.52,1006.83 C2161.6,1008.71 2182.21,1032.13 2206.54,1035.71 C2238.03,1040.35 2241.77,1033.91 2241.77,1033.91 L2259.58,1040.13 L2263.37,1006.77" id="Fill-283" fill="#F37A50"></path>
                <path d="M2399.38,1028.71 C2354.92,1025.6 2266.15,1001.86 2266.15,1001.86 C2254.02,1020.47 2257.38,1045.19 2257.38,1045.19 C2326.41,1105.71 2430.29,1125.28 2462.17,1110.71 C2491.27,1097.41 2470.6,920.22 2397.53,879.639 L2399.38,1028.71" id="Fill-284" fill="#8A284C"></path>
                <path d="M2164.5,928.41 C2167.02,934.72 2173.49,938.06 2178.96,935.88 C2184.43,933.7 2186.82,926.81 2184.3,920.51 C2181.78,914.2 2175.31,910.85 2169.84,913.04 C2164.37,915.22 2161.98,922.1 2164.5,928.41" id="Fill-285" fill="#4364CC"></path>
                <path d="M2145.88,926.27 C2147.38,930.03 2151.24,932.03 2154.5,930.73 C2157.76,929.42 2159.19,925.32 2157.69,921.55 C2156.19,917.79 2152.32,915.79 2149.06,917.1 C2145.8,918.4 2144.37,922.51 2145.88,926.27" id="Fill-286" fill="#4364CC"></path>
                <path d="M2439.41,1160.04 C2449,1155.45 2459.72,1152.76 2462.99,1139.06 C2462.99,1139.06 2488.95,1132.16 2516.13,1126.11 L2483,1095.78 C2472.24,1099.43 2452.39,1112.84 2440.23,1113.15 C2437.08,1113.23 2433.91,1113.14 2430.74,1113.18 C2423.02,1113.12 2414.97,1112.21 2406.7,1118.31 C2374.72,1141.86 2362.21,1137.86 2360.92,1140.58 C2359.85,1144.83 2368.45,1152.93 2384.74,1144.77 C2400.5,1136.88 2408.87,1136.76 2408.87,1136.76 C2408.87,1136.76 2408.61,1150.52 2414.08,1154.46 C2416.56,1156.25 2428.2,1165.39 2439.41,1160.04" id="Fill-287" fill="#F37A50"></path>
                <path d="M2470.76,1094.66 C2470.76,1094.66 2555.62,1053.74 2620.13,1040.49 C2611.21,1008.21 2625.76,859.057 2625.76,859.057 C2625.76,859.057 2669.32,869.747 2690.96,950.54 C2712.6,1031.33 2662.98,1113.55 2662.98,1113.55 C2662.98,1113.55 2529.19,1150.73 2481.35,1137.12 C2473.84,1134.99 2470.76,1094.66 2470.76,1094.66" id="Fill-288" fill="#201D40"></path>
            </g>
        </g>
    </g>
</svg>